<mxfile host="app.diagrams.net" modified="2022-03-24T03:01:30.919Z" agent="5.0 (Macintosh; Intel Mac OS X 10_15_7) AppleWebKit/537.36 (KHTML, like Gecko) Chrome/99.0.4844.74 Safari/537.36" etag="EeTEnQNf0nTTobIiHmwO" version="17.2.1" type="github">
  <diagram id="LKfuX9tBDM8uS3u2e2OI" name="Page-1">
    <mxGraphModel dx="1426" dy="684" grid="1" gridSize="10" guides="1" tooltips="1" connect="1" arrows="1" fold="1" page="1" pageScale="1" pageWidth="850" pageHeight="1100" math="0" shadow="0">
      <root>
        <mxCell id="0" />
        <mxCell id="1" parent="0" />
        <mxCell id="0eFBLOgmWxSDUSr-63NG-2" value="" style="rounded=0;whiteSpace=wrap;html=1;dashed=1;" vertex="1" parent="1">
          <mxGeometry x="50" y="90" width="340" height="210" as="geometry" />
        </mxCell>
        <mxCell id="0eFBLOgmWxSDUSr-63NG-3" value="&lt;font style=&quot;font-size: 16px&quot;&gt;Frontend&lt;/font&gt;" style="text;html=1;strokeColor=none;fillColor=none;align=center;verticalAlign=middle;whiteSpace=wrap;rounded=0;dashed=1;" vertex="1" parent="1">
          <mxGeometry x="80" y="90" width="220" height="30" as="geometry" />
        </mxCell>
        <mxCell id="0eFBLOgmWxSDUSr-63NG-4" value="User" style="shape=umlActor;verticalLabelPosition=bottom;verticalAlign=top;html=1;outlineConnect=0;dashed=1;fontSize=16;" vertex="1" parent="1">
          <mxGeometry x="70" y="180" width="30" height="60" as="geometry" />
        </mxCell>
        <mxCell id="0eFBLOgmWxSDUSr-63NG-5" value="" style="shape=image;imageAspect=0;aspect=fixed;verticalLabelPosition=bottom;verticalAlign=top;dashed=1;fontSize=16;image=data:image/png,iVBORw0KGgoAAAANSUhEUgAAAH4AAACWCAYAAAAYNDxnAAABRWlDQ1BJQ0MgUHJvZmlsZQAAKJFjYGASSSwoyGFhYGDIzSspCnJ3UoiIjFJgf8bAzCDOIMqgycCdmFxc4BgQ4ANUwgCjUcG3awyMIPqyLsgsi5W+moZnSyr1LwrmCO2QXYSpHgVwpaQWJwPpP0CcmlxQVMLAwJgCZCuXlxSA2B1AtkgR0FFA9hwQOx3C3gBiJ0HYR8BqQoKcgewbQLZAckYi0AzGF0C2ThKSeDoSG2ovCHAHuxqZG5p76HtEEHAtGaAktaIERDvnF1QWZaZnlCg4AkMpVcEzL1lPR8HIwMiIgQEU5hDVn2+Aw5JRjAMhVnyCgcEGiJlaEWIxdxgYtk5nYBB+jxBTA5rEu5CBYc/OgsSiRLgDGL+xFKcZG0HY3NsZGFin/f//OZyBgV2TgeHv9f//f2/////vMgYG5lsMDAe+AQDKCl93PJ+7WwAAAFZlWElmTU0AKgAAAAgAAYdpAAQAAAABAAAAGgAAAAAAA5KGAAcAAAASAAAARKACAAQAAAABAAAAfqADAAQAAAABAAAAlgAAAABBU0NJSQAAAFNjcmVlbnNob3SsqVR2AAAB1mlUWHRYTUw6Y29tLmFkb2JlLnhtcAAAAAAAPHg6eG1wbWV0YSB4bWxuczp4PSJhZG9iZTpuczptZXRhLyIgeDp4bXB0az0iWE1QIENvcmUgNi4wLjAiPgogICA8cmRmOlJERiB4bWxuczpyZGY9Imh0dHA6Ly93d3cudzMub3JnLzE5OTkvMDIvMjItcmRmLXN5bnRheC1ucyMiPgogICAgICA8cmRmOkRlc2NyaXB0aW9uIHJkZjphYm91dD0iIgogICAgICAgICAgICB4bWxuczpleGlmPSJodHRwOi8vbnMuYWRvYmUuY29tL2V4aWYvMS4wLyI+CiAgICAgICAgIDxleGlmOlBpeGVsWURpbWVuc2lvbj4xNTA8L2V4aWY6UGl4ZWxZRGltZW5zaW9uPgogICAgICAgICA8ZXhpZjpQaXhlbFhEaW1lbnNpb24+MTI2PC9leGlmOlBpeGVsWERpbWVuc2lvbj4KICAgICAgICAgPGV4aWY6VXNlckNvbW1lbnQ+U2NyZWVuc2hvdDwvZXhpZjpVc2VyQ29tbWVudD4KICAgICAgPC9yZGY6RGVzY3JpcHRpb24+CiAgIDwvcmRmOlJERj4KPC94OnhtcG1ldGE+Cu5YbJsAAEAASURBVHgB7X0JgF5Fle7pvdNbOt3Z9wQI+76EnbCGXRZFVBQQR9FBUdxAZlAc581zG5+ig7KMjmwKCAqC7EEgIDuEJSGQHRKy9r6mu+/7vu9U3f92JwGS7oC+19X936o6dbY6p6puVd26/5+XIFgIb//sV7Z+5UqznsQIzAtwpvOB1pOf5zCkkwRpIRA3z/LzHGakRJnlgwh8SMDyyEvlyOQBp7eUICwjM9IMyt9C+8PqxePH2sgvfCZjfxo4scJobjqh4b5Z1rFgsSU93XAsfUYPES24LrYReJztxR0f00QEJr0VaEUnJADoPRYxr3Jk0FgUYjHK2BwYBuX33/5WkGdlO29vo+B4Nyqu8k8eHE87IyOTt7Rad1OrJd09AUYHuNN7AgGdRX+JjD5EgkUsF0rkF2JwApJKUE7k4NpQHkApTk9OocBvUD59syX2zysssO7WNnog9ZcycEe+rKscC93IFOTOde+435im0+lED3Q6Q+zluYQL0hU4eWQGsiQP47/YgE9gEwYAlHG0GJQv2w+w/emjnNfosDDU+7DNIjhGDmA/9bz3T3oLKYA0JchwUTkKvD30UGXgun8diDKNGmxWCCj2xiNmjqJyclIhYpfn7VItRYSD8rfA/rFn0aaZ3sYpWHCWG1jGh4W9k7oLBCMWUYhPR7mnoQkbS3S2mgEcHfIioECgEYcxsu5ANhJxI0f8O/OEjW9QvsxBa9Iq/bG/PEJDR6eLHyeLSLgHvK+GfieR6t0US2fpLzJwlVJ4ojt5UJY4rioZS6aERPUJBUCKkHHE9bsO7maikTy2kkH5/bA/zMdAM/MSAu1fKCe4K4TAMu+wcAQMz55KohRPMCIJMzjQHRwgUpTeo9MFUzrmQMpRggyC8+X6tAFAklAH5W8V+8tvnNUH92ikhcE1TMsndDpLEdPZqRvdmXS1yoHLWHRi4nnHwlXDQj7ouVKQRwOMNOQvIWwGzAimJOgG5dMk/bN/znOeii4opMHlDhpdPpAL5Gw6gA7PC9gqwYX4PgMnRgzARBlxxE9gMQx8UQXSqpBOBd9sgwI8S+u3mUH5/bE/52HqWMEXOb9khnqW5aFTqvcKg/dctjZ3iHsFamhJRg8CTk+FQIfmHBfaGRB8EGAeAUjuUE4Imec/ZbBxIQ8kyvcwKL/f9ner65qalcaFkTG5CyB6hv6gE1RILzCBPGI5hm5SL3WHERZbFBsB6RjHWT0B7kgvZEWIk8cWFpXC/T7SMSFZKHVGTAzK74/93YKwfzaAIXbfQ0CCTqPlFfFKiTGOWaKIiI0guo/uYc8lr+DcSEqQXKsEuXk+4Dr/UEbYoHzZiPbsv/2jd2Mc/YUe755I3RGy3jc1+1aDQJ4xPmThDldKyvFezRLOBdL5AIvBzUucPyEsd3TK8N4udbw1AQZCCGI8KN9viRxBt9T+tHn0A1PBLZjV0864ECAnhQtdFjs8CYJvA6UDSBWVIk6GgdNGJ2tTxp2vpgBhdK03INJF6YAPypcRBsL+6mTyCzskEyEgzQW1nC4QHeUuwZWtTB4SjB6hUzQ5k3OckPvwhJMvN194lRAAiMYrVwBEoH+JpxKCPCOg01C+KMhlUH6/7e/WDEZ3fwBEaPpYlu7Iww4cHZlOzoIbvCx6DTEo6TP2WMVUEJl0mCcBuSPwboJnd8gDh8giwB2GjSEGJFXMHUDwGpRPIzHQRm4nbZELjAtAMmOMN2F/72+0P3mwKylSrB7PPIOGbYKFAUDATIcMgqKwIF0s5XTSk4mTURcPPgqoiAhM8IJ/8SIePkz7aON5Yg3KdyNsuf1p3Jz9g/HJ1Id6JuQPeSsM6YCRjD1TDg2xbscoUU+ODkeOOCRXu0JG/AjHxwNKgKCNH+KRH/OkA9OcfOZdn0H5/bV/8GvwJb0TIejx0UUE0+LRCW59X9ezMdBbTufDNMrVUMiVPKKzyQJOJkgXFnm5GHCfnjIIojzgiFLseUvQv9OqmE1pUP6W2Z82jk5jGralHxHSvfpgbje4l9Hc+MOZGDoYBFq2ZfiEJNgg5f9I06P0WHQ+c+489W5vEcDBUs4BovWunzJBeaQblN8f+7uPYH8k6BkdioE/dI/33sd+5T2LyMQSRBkS8F7hxPIU4QFRs3ngOx9ikS240cmURk5sOIKSKxO6MqUkT+dwxUCSwJZUbG8Kg/K33P7BhG7XcNWsnq2BwScRcn8wOgronxAJCRc9act5JKJ4MR0qGicSGlcL5AiQOjwQOApk+XpzCI3CsYEfBIdoUH4wcVwlMQsbBReFwqz93eapE4khZB13cXxCZGg5J6TpHjDmkKz+6r6iv+Q0Jcgo9F75nPjBUT6sULeogMsVAohJytYgfiBWI6EMpQkdlD8Q9qezZGs3N65xqEeSGTak4Ab3kDzpjYBJBcRqIMgQRieTSkM5nc5y8mKsiRwRgSEH05HEB0AIpAd/5sJBTBWnKGIieYPyaRQEmsSN+B7sn3pTfiGx2zf0ePcFOMprjCEAH5JpeJbE7AWFRAsKiE4OZMuhZu7g2OPJS+4FM5QiUADpARUfkqnVia+KB+XDDP23v9sbZqXJdZHlMzt3ciIF4UNsIrp/3DmkCx/fmuVkjM5iLw+ImNTRwZIReYBGhADKyWmeCLln7uSjIsYR0UFpdlB+NCXsTlu/m/1lUb/IlMGe9Idm9bFcyytkWC6c0AKCT9SZWSDXoreyRRKPKfqekz75jUAv8Dyy9F7s4SxkY2Ej8YaCMuQ5WATuIpfHiUteCCqXHFwG5dMystM72p+GC3ZlQkmAfK+eORqUBo5pYRAIZBoZ1hdIl4BLfAb3mHAyWY0eYgg8jQoUgGVhECEyH2GE4LJDodqclBqUv6X2z/UYeYUXNRRe3PFIxMBkj3pnztFxKGf7khLA0VM6NAaV0ZlyKuHOKd7flU2diQR7NulxYexptlnAYn4A5VsRnzxjFgsB1C2VibFOWxOEQ6719FjP+m7XYwDli3eomD/ZfD/r7z08iE/ty+rC8SikM2gRVNsdghjYAhHGEvRqZ+MGJAHLHeZWjHyIr7QwfOct5RE8riUbyymIsQuDfPAFaCDkl+28rZVP38sKqodqNhGGGMjLBq9/T2OjNT37grW++NqAyXcLfXD1z6df4aFgWqWjoeF4FKpE7qInEdwZ9FF8ukOQs/HNGJY4zBPq8QISK1YWQiWcuFG800V14srAGxBw1BAGRn7NGadYzRmnWiEcH4NzDjpAXNSqG44ve/ARW/nza63t1flA8E7wj1x/N3msIS0QOjFSmckdHYY/4nFNzYhWyjhMSW8l6tGxWL0z3OfZGrwRgBERmBcbxOJNlnB7TAMoX0s6ZA6g/MLhtVZQWuxqUBUEspdiSHhaACuoqrKhhx9itWecbHlFRQL+o9c/diK5wauZ1t/v8TJFcJC7SRCaho6QY2go95A7kNuwsRG4mXR1Id7TxTHgxHYh5+sCfgAyyTLe/9JRINWhf/Lr7rjbyvfYxUqmTpFuXStWWsvLr1jXqnWsWhBsVjppgpXtv4/lY2SoPOxAK7/3AWt64gUi/EPXX5VmHTyh9q4MjN7r/XghyAmss6PrwQmw3aGAwUtyVGDHtkBMlucaCSAoyK0ESE+38oOrF5MiVSYvvFaVNoD+yM/HiIVv42i8/zFrPOxgqxkxwvIrK2x9XZ2tuvo6a5r9jMopnopX7LOLjf/2xVa2zx5WPGWyjfjM2dY65zXraW1Xg5TOQJW+/wj1D47gOxDut5x/YjXiMVfl3TmsJv5AwTwrqw6q3k6n01oeBELSy7MJF6QrWGiGTx+HbVlvFM5DOooU0mjU+LeF8ku3m2hVB+1jRVPGYcgusLU3/9E6Fy0EV7MhO+1g1UccYkXDq2O7Vtzy0mu26r9/a93NzZZfUmJlu+xkVYfu/w9Z/4zladWYVf3d4gSHLVstMwSFeWD8hMsz+dfbReyppGZjUBnLiR56gDiDjr1cpOQXENlAdJtQgmSBOOoFOBua8Pshv3j8CJvwnW/aNtf/0sZdfCEcXKNZesOsx60LvZ2h+vQTrerg/S2vUAsamsaSjk5re2W+Nf51NnNWPHGcjbn4S6J3Tb1BUu2/5/pzfbqB/dOexZqGAJhmce4IL2AV6QA6gg6XYYKj5BzQ0olpz+cQTeYIpBW+txqwcWpnCRyyBojF3G50Kl7xCczVFrdQ/sgvftbKD4JTi0ps2EnHW9n0PaygrNhW/89N1vIM7tlYqxeNGGnlh+1vheNG9pLf/sZiW/PfN9j61bj/Q37h8BFW+7FTkfRmTx3/3uu/MfvLIzKxW9v9hFk9XeMWiP1QrpfLfSSgk2EL/RHXHcV8CueeMYuAJ/ZIuJjAU0IcFqmdDxlH3Di6eIOQPLaSrBwJiRx6y88vK4Wzj9NQLeFAG/+tr9uQHaZa18o6a/7bU9a1eg05WO1pJ9uwk2daXglm71E+nN2xcImt+90tqkRhzTCrPesMKx47IlfPd5Cvog+w/huXTygCzcxLCGwM2NBygK6hjD2SSzq5jRME5DWkEw5DqVxMQCBcdzBBZMEGQDiLGESf5sgCo4RwiOT8srebzZZfmG/Djp2B3l3q8jrXU4gVjRtjFftxtl5uq//7d1Z/70Nm67ssr6DIKqfvi3v+Nr3kr397rdXf/UDaQIpHjrDx37sE21wFf9/1R2dMbQ0LvKP9aXcYmOO0jBWRtQZHIRuEOwwZOhsZRGmgqLjLRqDKg3TSiT/hZCxa8GCeyBKGNDLpBo/gDiPS5sjPLy62CT/6d/TgEnKx5qeewbc9tSg9+hsXWvnuu1iC7dim2X+z9oWLyNyqjjjUqk/0ESKoLXjba4ts6be+i2/+QgMBv8p99rbSqeP/ruvPim7S/jCm18/trwwAPtSTEhmfVTuieqAcjiK2KFI7B0WOS8IYfOiV0+RQoMPhaougIw+VMe2eVQxU5sSbMUXw857lY+lWMnEshvhiUIEOvX3p1y6zdkzWrBtDWinu9yfOtJIJo63uzget4cFZlnRhREComnGQVR1+YC/5SVuHdcx9w9penkduVlA7zLb93bWWjxWCFANU+qHxMs6FD6j+qQLvIF848kTAzgz1hOThy9TUW2V9DPXytjuGvZOp6EDlABOYtKAhrTcQtC7mWUqE0IBYSD4a6mk25LXUAww5DQSbKz+vvNSm/vbKINgwQbvOuusbbPmPrrCOpUuoptV8/MM2ZOcd0MzzrO6uB6x59tOCc3lXdch0zfCz8tuXvGXLvvVvwuGoVlBdbZVHHyIl/97qT/My0O4btT/KIo4QeQHiP/b78XBkYfkQKxk/Lq3Tyquus67GNmt6/BlN1pJuPnFLbNQ/f8Yq9trJ2p6fay3PPsvWJ5qhJ55go877mGdhPN2FQNO5/G2rv/NeNcj8IWhcP/8h5gYFwPMhkzxp7NiPyI6Nxxs2UwiI6AxclRYNwXos6PLZCSIdE5TvJEgIBRIIE5AdZ/PkUzrl9gpgyKeVHpDQ5BxAogmZEqU0Yvwry7JUiaBbwGelCWFxSkqQV0UpoTAfcJ2xioLx37v8PEzmhp/78aBQYtyi7WpqhmzogGF+2b/8u7XNeVnyy3bbxXs9ZvJrb7jN1t70B8AxARw+zMqwrVtUO7SXfG7rLv/hz1wx1qm4xMb/60W47xf/3dRfjSxoSH9taH85SvUPaG522D/s6QV3pP4gG3y0Rod50GzZcvkhKxeolDzse/gctv1DIbGlkzO5xUAcKcgY4skF2MF5TAFCeaR6F/l5uL8XYeYteuK3dwaniAWG+hXW/PRz1tPQaElBvo2+4HM2FGv4jpVrreWFOdbV0ADaPKs66jAb+flzpEMqH1u+61essTcv/75wSM/lXdGwSteNekpvUHiF3vf6vxf5UFJ6Rg/I3sjI8qpsKGZP9S1WmV49NyKLBzOqM8uRoJPoRCZBy/5KIc6HQFKF5RvLiQQwKETAYjYsEad0xHl3+XR0/d33gxPoEYYefzT25Mulj+RD1sorrrXW516Sc4pGj7LyffdU767HvX7tjbe5LuUVVr7nbljeTQ16u/yeljarv+s+6167VhLyhwyxyb/4gRUOLZe+H3T934t82pfOcQsxg4AMPKKYERJ0Bz/uVDqUSDIsHQEuPtsmrn/ilq1nuZEDIaFMQslNXpB8kZEj/4UHCgKdRs2BFOQiB7JsU/KTri5rfeEl63p7NblYQUU5HrZ8A8/fK8WT8tevrbd1f/qzdSxeol5fe+aHrRITuu76Jmt+7Als1c6lCCuD44ejR6sRR/mAd2F0WHTBN5Hy2pTvvaeVTtsGQ7+OMkBvt4tX+f2tPxV/Z/nUmYZG5CllCZXjBcVF90Z5F5iiwUXDGCtHKURyLryGIjcW8UNZJHWZHFRyxhEPDOHq5CBRoBgk/P18JGIhBfSVjyE3r7QIosAVw3F3XZMtvgibLPzGbYSqow63oglj0Aqw/AI59ebGTdurOFkDQCGWZ1y/l+6yLU7cvGh1f75XMtibqw7cz6pnYvaekZ9gw6fl+Zesfc4r4m+4x0/84eVWHOcEVJG6qAJuGyajbXg3HdD6b4H9oY10l3a4MO7leNmZYGGgVDF7MFX3EDov8oCgnHBvMNnKAhZ58C0NIBIvHS2YIzk/xMNH7S3gMa+gOCe/AD259pTjbLtfX2Fjvv0VyysrsZ6ubmt96kVrW7hA6/aCsiE2/tKv4t4/LDDpse6GFlt17fXWzP16hEo4uHyfvSxp7rCmhx61xgf/KnjRxIk29MRjsbxDo2GgfOjY09xmi756mW/qAFQ6bVurPO5IK6zCbYVoMBzrkXM2YNIdhQNYf3LbPPtTiZz9VRkyQUgdzwq4tt47VSGAOEyrQiFmZwAi/kAaK4wccVhZljAjfoQzrxAcCD7CIz8kRAemOfnggQzzpMzKLx4/xkZ95XyrOPRgG/Hh02zslz+LneU8627vsKUX/SuesrVKUsX++1rptlMwHPP0jctvfeFVa3vmee3oFVRV2vAPn4whf19re2OJNTzwsPVg44ebPez1Iz55Wm/5WCG0z3vD1mElkKzndrDZ6M+ea4Ujhkk+Zbwf9aeMzbO/25FGcSvIorIRvacEQTJ/6gRKoRPoSlSNEgOd7tkqJICE5BGdjRQcKpAuLPJyMeBMnTIIcgFOKfZonYCrKHg/yi8ZM8pq4KxSnqYBi4JhQ636Q3gCtzs2ZvDUreXZl63hkce1c5dXXGRjLrrAiscNpxAwxIl/7MitvfUOPKx5TiBu3lTimTt7d+OjT1jd7XcIXohDG0OPO8YKayqCel5/7gK+/V/XWk97u6pRjFM7I877pBWOrHlf6r9l9meVotNUPZjCfQYTesLNjTQNHkDeW9gzWerOVG+lc4gWYiHQ2eINIF0XWZGWZUDmUK/NC8nAvU9oLCMv0jHhEVml8vFVyyXbTMbW63EoJwIC4pJRo2zMl78A5/kZuZU/+SV+YaNZDad8+t5WieNUBVVlqfzWeQut6YEHsUx72wz78NVHzbChMw609W+tssb7HrKudevUEIbg5zyGfxqbOlIm1B/qdS5abm//6GcY+pulQs0pJ1jplEkun3UUlPVQxbx+APa7/uQB7rIX0ozfs/2lDYmkFcxG/cJQL5ujhH3We5iwHQIChg/y/fTiSeOtBgcoitDrqSuXcT0dHXBeMYb9/W3kp8+ghtaC41IN9zyI3o1eiTD8U2caRwo+aWRLz8MEsGHWbGt+8hnUM8FZvKlWffxRVjh6hLW8ONfW/f520fGRbM0Jx9uQbfBwpk/91/z+TuwILsX9vhujTjWOaZ3lI0twhhjoDsoGQyAhHOG8YdCBArnRha46SUfan9gIir3RMdsf+4cqON9wRY8nU15dIJ2v1oU8W2qsOZWVwop9SBYAON6iIx9gqVJOK8OFQxdMq2Kx0kQBPwaag6ZxOcFI7EW4T5fvjqNQM4+Qgl3LV9iKn1xha35zk4jzS0tt5PmftpJtJ2BLNd9WX/s/1r3OT9uU7b6bVR2LWX5NpapL+Z2LV1j9H++ytrmv4X6Rj0nenjb0yIPx61trrB6Npv2NhdKmeOxo9PqzIANECK4X5o+Nzdgb+CVO9NQLOPSYI6x8/72toLIs2HFg699XvuuymfZPrRwqgrwcT2ashRwt54Q0YNqNg6PkCpYBU6aICVmEF3BgnekslBEShxWtCkTkcLdQbPnuZBLLxsBjb5Qu4DJk20lWgwMWhXhQwqVV+6vzbM3/3GxrbrwZT9CwxAJR0YjhNubC83WwonXeIlt3y23Yr8euHFoZz9UXTx6HH9JwBahX0zNzrOmRJ+DFbjyzH2vDjp9pZbtOU09e+3ts6iDkYwI49ISjcX5vL+mTrX/9PQ9j1HgKI087Gluh1X7kVCuZOGar1H8g7E+PuYdkLtROU/PgDLoTDSm4wYHypDuBSQXE7hTESNPJYgwHuJIkBZB4msihmHgsZ4nwARAC6cGfOQx1wkNaAcB89KLKg6bj0ekhwulc9qatwXDc1dhinW+ttLevvBaTOQz5WLPX4FRN9czD8Pi0yFb/9hZbv2w5mWoyWD3zKCseWZvK715Xbw1Y2zc/FSZ6u+6Etf2x4tuIn2BreQKncBEKh1bZyM+da3wNK1v/HtwyeEyrczU2jlCfygOho2TUsK1B14Gpv7ek/tg/9ab0CpqhZnjc/B0E90Via357E7YnMYQFD8hVKFQ5LRHToUvT0QqsrZLBscwSNxYjBggocD3hjuxOV4MBLLQislIx8Mp328GGn/MxK8EEqqe5BcelZ9mqq27Qxk3S2WVdb72tXbohe+wKXnDy9tvit/MesM4Va7WtOmTH7S2/rAy9cbw1P/u8dS57G7akW/LgtHVYvhXgaDVesYKDC3BL6ViyGMu2RVjyNdnQmUcaD3gU4sBmx4I3rP31xdJLVYIs8ioZP8pKt5uKDaVSKx03Ghs9L6JBrkAHcjv0t/45e8nKveTLRamAjdufdmyvKLMlO061ZW++aW+i4yhGOn2hwr1Ex+CTMT5FyieMw+f9eD++aES1DcWsuxJrcgpejy3XdXf8BS824mSMWke+daExrLjiKizzPmR5ODdfuu02VrL9drhfr7PV199qVThTX45bBPfoqzFH6MSkrHMZHAN+HClannwez+afwB7/TCvFTL724x/BFjAe2z79ojU9/Kh2AQsqK23M1y/Eku9prBhaZINY/9W/vgl7/3thDrI7bieTrPrYo6x98ZsYbdjAYCy1ktRoqR2dCRF8V89xHVmjaTR4oI9ZUjhbDM2gfbf34/ny66I337Irv3Up8DMBTDL3eOiJlspAeZLpGnmbIMylQjhKkWGLJB5T7MkD9n48Gl8ZJnR0vOEJHCdS9XivrXk2nqNLTpAPfZKWDn/xAXpQgyLMtPkLi9zKrbvzHuvmcAw83usr9tsdwzaXftAbCrfOXWBr/3AnlnPLtSQr49r+CCzv3l5jK7lmx9KQ8kuwZq85BTt67GEZ+Z1LVlgDHhKthwyaZthHT8OtCQ11CGQAj0CSsIxe121NGZfPmxz/YD3pI/sq7+Sx9ZAHw2bbH+2jfX2nLWNPX7bM3nxzWYjR49sxQSktwSFFKhiUVTooSOFclrDSXgFXQrhBIdeIlXSAV4D8AkNE2oAgEc/ssxKhIj7CCMEthMKi0TW4rx9qpTtOk7C2uXOt/k93QxUUSgnXlS9MFG83yQpG4N4qTJyUXbIUwwNO6gJvze/+hBM2+6Pn4h06DPmVhxyEx7GvWPuCZS4fDZ1HrOrvmYXNmE9gr2CKjTznE9by1AvWtmCJ1d19r9V+9HQM5SU27rJvYIfvr7qNuE28Eqt/e6uV772HVR05wwrKy2woXthoe/EVrBoWbnH9B8r+XOVMHTfK/vUL56iHs4lpIoe4YNq0ad9p62i3trZW67jtLkvq8Oyayy86za2JyBOKCWaWTkBCkzZaGU4lnGCGOKNXxlGDz5yb2oDweNG/UPmMfehxM2zU2R/XzLoLj0TroVfD3bOCtyVWggqGVtjEf7sUE7hJYsIl2spf/EYjgHoXJmHcxePvqxZiJOBtgE/peKaOe/ysBpdnyfoO3OtxBh84BdjYwf3EGh963NrmvYZj2MfBoeWavXPvgPv9eVgNxPpbB249mCtwJ5AySrfbVqd32ubN0y6iKrU59QeBRoEBsD9tWYXR6ogffM92x+1oNyxvGfNTMGvWrO88//zzVo9zauNefcOK8b6Y/ChT0iEaiNyptBQDKiKnhyQ3SJzInS+LsiEEahGLRITKasnmiCyJKHiyNtpGnHk63mvfR5Okxvv/ait+gWEXv3vLxqJAQ8KhnPyN+SYe1tBI2LZd9Nmv2Pqlb8EnQAjyO+a9bkN23BYO2QaTNQzBXT3W/tp8PG5dg2qQIQ5c4FaSoPFXHnoQ5grlWjo2PjJbE90C3BrKD9hXe/Ll2AmsxyPeLnQOBqc2NJAFmF9MtCHTtpNefNLXPv913OtXAofKuuLeGbyum6o/cSNfxsxRT7LI1j+Ltyn758MvRaNqbPgnuMFFXm5/pvNnzpxpp516qp1z7jlWi7VrrjouiK9TxZbgw7WbS1VhnSLDVCtXlQW+p+8VSYd6SqVfRAl6VpS4hGDorvnQcZokEch7Z9Mzz+Cc+zrRZOXzsei4f/m6aNn7+Ni1dc5cnKDlCxmuGOXz0W0dDlN0vLFYmlYdcziG5UMtD2f1GCg/aW61ZszI215+VVXlCDLu0ousG69Wrfr19cZNo8DSxl7yFd+sIXGsPxpd3e13Y3jHyV7AyjF6UEb+MOz3QxvZiPaJNtpE/cnSh0wgMCmS/tifXCg9Bnc9c/m///3v7atf+5ptt+12Vphf4Ifw2IMR2PNTZWOSXmIaWsViH/VdWZSoTAIFokvJBjFJVRk4OabJR3hYjk2ZYBV77643WzkU1//5Hlv7Ozw8cYRAD0Oi5xZNnYzDE5isIfR0rLfFX/ya4o3Jb5z1NzyceVJbuRRbCadU4JyddAny215+3Vb+5Eo8hGnDRlCphm6OKDy4ufRSnLiFDlSTO3Wl20zCBNJfNGadqJ5WAo89jgkhRgPka049CZPTQ7SbSLr3Un+ZRJeBsr8kS2+ooED2VNAlKBkcJDQnIIocxCwoODzpNiBqzgMEJhpCZMm048kCoaGQTg1JxcBlXhfgkhq9vfasj+j8G1E6Fy2GMV+wBLceqURZQX4R1s/j//1fyEBDfCeOUbe/vkxpqrox+etu+ROOYL2g0oq99sQe/wG4d+N+DqXIhruCrQsWa2OHSCUTxtnE/7jM8jFBasJSrnPZUuGxbNL/+Q8rxBDKR8KkVYDg1dhGbnj4MelRNGY0dv2mWyFewWJ4t/rHhhX190qDTsqRAXlsrv0luZeOhLAHYTGoJApDJZBnC45e9Q0PV4MmYgt3B3qViZvq1iehYTQIcjFuZBIwr5xkoReip5dzIwY9ib19HU7M1v/lIejiNCk+jjyVjB1jZTgMwdDV0GQLzr4AQ7o3RG8krkhWfsuc+XiI8zLu5djpQ3HtaSdiEnkEOCCj/3ys85fhdenrNDnkbmAh9uurTz3W+JLF62f+E0aUTsks2XaqlWO3L5/ftgHFXBqPaa1TY12/Zo0qOOzUE/Fw6SQ0EBzLFuWm6+8ndYAEhuQ5oPYnW8qnogyIuYOQBvZ5bwC4AtPHAHe2a4Nyej4EKYi0QOScJoIgisO/JjUgi9uy5BUGAsUJjDwMBiqH8xnann7eWh7D0IwzddTS2UqAlU6eYOO/ewmZYkreg52y5ThNu9wFvov81dfeqKd3lF+Es/hlu+2KXl9KFSEDtcWnY8FSW/Hjn1MNzdLHfu1LWF+iUWBTpm3OS+jNxEav//n3sc8/WulULBKrf3uzjnPJltj5q9hvbzwHQCN9p/qDS5S/NexPJXNeo7Aw1GsWzFKO/DIA1trC9HbBIVnjAZXnH8vCh07Ff8iz1wmTzFgbXECNcg5TniAkEBMEjJqTj7IKPD/HuEoiq39oFpZNc5DuLZ9vtxZNGof1/XYow+0APWvxZ77kG09i+c7yO/HcvW3efKwQ2kRfc/LxWKefJL1UB+jbXdeAoX02en0LcPDCBpZok354mRrZ/I98Rs/7ScwlHidwhdUVverPlzJ5iLN97jzRV+G00LAPnaAab6r+hEf5TAzo9xOwg9DItH8MgOke745QKXCICAiydLhD3VFSDsR+ryEMQWffPU1a4cvhZOPUzhI4+Jf/FcNJIOcXDfGAZPGUiWK3Bt9gwaPPXHb1lV+2/VSbcPm3SKU1cjvW2R1YMsXh473IX3XdLTp1S80KR9TiZYrdcT6vFjwIgX4wSdv8Jbbocxcpz82bqqOOwI5gFVpal6256RbMO7zhjL34y5oL9JXf8MDj1oBlqAJ2EYfi3D5vGRurv4AsyMgfSPvLIzI0Lx5YU7xChSBY7IdyvVzuIwHyQFJPF664KJ/C+/F+/MjPfgLbnPvp3s4XHlvxMEV73ZSgVuryDff2ogljrRgPXBg6scRa9vXLdW/XnjVg1Mer4nVgTtqqkg7rWddobS+9Yt1r1gp5KPbXR5yNdW4eXoUmDz6ihB7t8xdYK5Z4rHlhVZVNvelqWCsPt4ErcXgTM3cEfm3K8M+ebcXjRyof5fNNW+401v/lPsFLJk+2yoOn60yfy6CiTNGwUdc4unmHkL0z9d8y+0u8i6GsENgYUBUH6BrKfISmIlAOSzvmNaRLV6jAWAEETGeGd7KgAUQqHMglvRAdEB/XFtTiZcQD98VrTMOlxaprr8MRqL9aD3fGIDcrv3y3aTo9y21I7qB1vL4Azl8lOZslH8Zcd9s9+NwhJQvw9KoMk8pivArtgRZJsDWLt2j+9X8Jh2/RDNlhOyvDu3ec6C399n9YFydwCMPwzL5k8kTcpXibko1V/3bMFVqeeFq3lQTn+qqPPsJG/dNZjhMfV9P5MBbtk7vdQr5s2rv+A2Z/+gYCeFOXMtFZOownf7pCahgwltbtJAqBTuE+u+gAU7mz8ooQxg8RIIgVU570gWj0BXyRcQ90nXzrXrVavb1zdb0IKZcGYJyPY9Sl2G4txvFn8uDu3PLv/dhn8gQgbI78bjzVa579FDZcXgdlnvFU7vCPnaYeHToZbjVdOLK91NZdfwvURa/EMa/JP/+R5Q0p0ZFsntiBUOMu3eiLPm8l0yZLX+kCvfkUse7P99na398qC/M8fxlO6hRPxIQw1J+yOFkOZqMqZIkLk7n6E7jF9gcf5+/2VwYAH+qpLYXiQ4FEVAuUQMDoYAL5CREdGrIOJF1UWhUCuioFLP6TAeHKJthCnSiD52EYZVj1mxut8clntQ8OlF7yy3bZHr3lbMyoMPpg65ZDMJ1CvFzYPPk8bdtw34NUSc/sK7EtWz59d/GM8ntw4GMllncx8Ln+8I+frnosveRy61yKvQOEcmwkDdl1ByvAW7WqY6j/+pX4CpbHn7ROPjjCCFaJt3BGfvrjkEEE/rszqAPzjCk7yneHI99f+5M/uJKvh8xQTwB3Z+l8fjTUytuukFoiVIsOJD5hUprogU4kaAHiw1IihAZEJNFgqBt1/rlw/hTRtb0yDwZ6ynrWNm0gvwCzZu7QlWwzlYxkxBVXXIPDjlh59EN+V1Mrjl89bq3P4FEvQun206wGp3gTTMZi/bn/34Hn60sv/a5wKH80zvfl4ykct4db8BSOx635zRmjPnce3sbdVvVhD1D9Qd/0xHO29vY/i57HufhOQCU2j+gIInMIp41kciaDHQfM/pAEtr0DhBSy31KoSjnwq9bI0qoKKGeaCuES4WytqiXw2W6FQhyRIUGmokEcCkWDbMUhe1nlAfvBgP4myrqbb8ewizdhKIH04iNG+M65HWwEvtiA30PDUDBsmI04B5MxGFUygnxm1PicDNmQUH2caZTPjZimh/H0DRO4hvsfxf7BXhqyec5+2MwZmJTNSuvZ095ljch3XfjP2K0bboVjRuLB0Bdt+b//p6386ZVWhlM/fOo3BBtKfMjTsfgtPGPAYc9Q/y68o9f0wMNWgQMblfhGLn6LZs1px1sT9ik4j+R8RxaEitS/b/3JqD/2p8283lQoBAjBifWYCU4D0M1ETVCmDC4wYJoVEdixLARX3jGESRKUyRmidETOC0Z88kwcacaxZ2A0PfAIjPCETreQgD3AGyMz2DsZNRITr0mBGfI4WFl7hg+3UVPKoDKkIyKvrrwSZJtqIBpMHqsOORiHLa7G49eHMVTvbEOPPRqbOuPxzVnHWMNDs3GCwXf4MJGwrrXrbNk3L7Mp1/xMe/Q1WJevveFWa33ldau7d5YNH4kGgfU+X/howds6XY88HfSh3MRa52Mr+C8PYK8CTxzxilfVgftb7Zkfwtu6t7uCrrbs2bf+rjxqsAX21/AhCW4RJt0W6ZYts24cpdSL6FgOAawD0ozxIQs6PBqZTVQtEiV+LyKG4xLLBTl/wmtPm4njSntjkoQdM2zN1v3pLt95YyGC+Gbk83l8+/xFuTqg5/PrSfOrKvCyhH/4ajSHUc9XKs1yPmJ1PDxPR97TwMNxrNLdd8bR6yMxVOPZ+6xHtC/AV6iG4DXqYadhyKfLQv17cLCj4ZG/WdPfntb7c/kV5Tbqy+fj2HYVvjnzNmz1LoHmeMEDx69qTj4WMU71ygxe/wRHtviWD+tKcAEac/UpJ1p+Db5hk5WmldR6N6w/Efpjf7EH/+iBoBbO3JExLgTISeFCVPjUgYwER0KUDiBVVAqQLAOnRWV8VEADQoI7b3w2zAOMZMNjT83Ynu1uaU/lSKZ6vctve/k1W/5vPzC+VJEqKVGYoFA+02p8QRYZ4F9zEZQpBN01O4fThp2A49R4LboSDbB5+p5w6HPYNLrXuLdePHK01Z50LI5t3WtJU04vNpAVP/ipbXvTf+OYVqG+6br+QDyfv+9RW33LbTYaX9BQjG3gyiMPswa8ktW5dAUGi+60/n5M6wGdLOILG+VYHo4468P29k+vZQWgJpWE3tKV1u+//WkDcQX/0K4kg3bUYcvoS5ZCnAtljLxyVAwzP97/ve0wH3mAtZRlHhMuFEQhEkqKgFtz1uk4FLEjpOJBTGMTNjnu0nqZlKSRbLUUcZH8Lpz6bfjrkzD2Uxn5moxEFXLyQes6k2MwJflFhQDjCZsivDnDtXvR+LHYWDkAE7Cn8VTuQas6eoblV1RYyU7TMK84zVZedVOu/qhby9MvY3n2B8zsz9BxrJF44YITPM4BqmccYiW4fRXhtS7eCjrw/J+3Amqh+q9fb83ArcNTwuGfOwffplWD0e8kyJ1lba8tVF02Vv/+2Z8eYP0ReUoNi/rAgrkQfz9emooGl+gIYpNBMCKToUjGVjqURVKX6f2SX1YwGobKx6vFpF1z8x+sFadjuFtHPNJs8v14TuQ60XuwtubtQW+sYp3cgy1UHrPm0zylVYZ8pozn7wxG53Yr99G5hm/669/glFchEbfcvdDz8YYsHdiA2Td149ee1px+ihWPwlZun/qvvAZfroR7PjUegse7NRg9eNhj3c1/wjm9hWRpFWhMFeDJW4c/dYNLUUF+gUMdzhi0z39DdizEQx4eH3/X+gNBk+4ttL9b193HCpJNL8dr2I4lrAExcEmHDOZQAYLV85Fwh0ExppkJ5blOBsODYvi5H/MJHTZr1uMbpdbdeic2beq9HYHWR2i2b6Hz6oIGSL5Uo4L4b8Zz/ubHnlK6ZOIEDL8H63n8ujvusc5V2JiB8twersUIRSWy9V+PFyfX/M+N2LZtku41n/gInhiOt0bM0rlm78Y+A7+Zo3rm4XgqtwPovf6SjyVo+yJsCuFtHeYLyiqsGu/ZVx2Ko11SbaDrT0/l5KvCgDCkjqci7gVvncyTjPdP780e+7DNWwBIUSCHI0ccplnCjPgRjo2L4sljbRTeJ8/HjJbC1+H1p0686dKDniw6MM3JBw9kmB8Q+eICZojlQDDvwQHLpsfxNSh4UsdQttNOVom3ZumU+vi6NCaAw3HCtgQbTdSRSjFm/Vf9+vd48QKjFUYSburwdW1OLPl9PB08fgXty/FVqnRqPo6IeXD5Xesa8GLIw9by+N9UwcLqGht1wWf1AqjbX6IGqP5uR8qnLf3KysjxnmCBzJ86gbWkEnRlZqghmJ5RobOTp5AnlCHdygUe3z8f9U+fxJqdTjcM7wtszR/uwoHFJmJSgFOClR6QkD8RKUPF/ZNPVu45coUQztRRpxY89m2c9TAL0TAn6Hvse1pbrQ4nejsWLRGcp25H4h14NWh6HP/Uib16zXU34ft1OOTjrVzsM5TvuauObtfjFawuvKLFAyVct1fsvRtoKDsnv/PNVbb6mutxe8K3dBUX4B2CXfD+3oytUH9qF5SmeASO6gyY3HnCFQOEBg8guA1/6JXq1kirewIHKKEaikUAGidjCXlgTMCDiyG7bGc1n/yYZsIs6cIRpgp8nTjfQfdlIGWSxGmIo6yEcH6QkS++xM3JRw5Z6Ea9PUO/igfxqAebVk6ESyCksAq90bM4JTtVZ/Cb8K2XnMCNufgr2qEbhq9eacQ+A0dMdQxXDt/C0elrfYjga1rV+NrU9tfewL7AX/H2LN7APWIG6r6jVjE8I6h2DFmuJ24lOEVkPNGDwxoFWJ6OveQia3zkST/Bq4YS6pWt/2baP7rS7ROqKjuh7rKVFAoGCi3CZcBkrCiC3s9Gxu1EyzKFAERRpmUE8g4CS+GNkjEXft7yMYtnIKsqPKXiJxskC4XuoCDQBQnNk5lrpkzVUV4MXEjKHAWsQGCZgvskKL8ER6OrsQavu+MBbbbUnHKSlWLJVTC02qZc/TN3erxuRD4PW9TjoUz9XQ9ZI2bqZTtuj/f5R9tQ1JUHNN8pqBFiQll56HSsdB4AKiwBGbJr0H1L7K+RWXxcurPyKz3ETqHgg2rO/LGns5B15YeBr0qlAPYofMjD+QCLWkPtvATn1kbjWXV4Xh+IxUHpcHE6UWTBaTqop7zSaHTSRZdUMBkghDIlWeYwXhVyhBEivfnFxj3oxaxLB1+h+sVVeJUKj30RxCJgK70x+Ziv8JEx5dfd9zC+DhWvb9U3v2f5mApZyfjxwlcPJScaJvQ8qi3VFb83+5PWySNlZIItWyRDgMEoiP9wnNIQxQmRHIc423mCPkEbMGY5+SMGhZRMOtttxX/+HA82ztWQxkEirRSlAuDPBlyxVCbxyAScFKn5g78guAT9CPF7FvUUmCRBPmnZCGIscSFPPcgsJ5+/O9eEWTmJk8ZWvKv3mBVgo4Vfv0Leqh8j0m1EftLWZh14U5Z16F65VptTPLDJr1LlaVzpznpJnz7y0TH49SrrbvszWFOngbF/Pg2ukLOd+xA2gSCI8QrNnXEyDhsu8bWyCILZWNuAJOep9g5LDc4KCS8onXIFD/QEnlbR4z+ZLjpM9qQd04TzCIaJZgJf4qRlfeRLN/IN8uWkIN+rzMqwHD1lU/Kx1OLDm1RGIOHr03jh4F3lcx9BD464UiETyOeXHufj3frwssKm5WMfgO8GkL6X/FB/dYItsD/ll+EAy/Z33xL8F5iAr3o87eU1y8RIaqeO9iIYn1wIFYtahpal/hWQVQQq2R8V6sY5NRXholiORIVRK2fjDUasgCAVccE3qaf4THjDIwIMC0LK5F/UEiUoCjyR5qFY8qceKsPFcQjvLd8RAytGoOnmzBtzMNWDtICljt2YfDEnbwrvxiQQ7+gh/W7y014O/lJQ8lE/ykSa4FxwhhqNWUKlEGgHySWIdIBHOvGJzMAxN9SLwisVKxkVSJUWcyrCnsNegBh0PlxTNGAUTjxKZIIhpCMfzxOYeyTpGrv81EqBPtKRwlkNyn9P9qftQ5ApM/7Q5C4tpFURWC6c4L3QJrxhoUCuRWuCy4XHFBsTJ33EZToUeJ5MwUstUDK8sbCReENBGYi84ZLboHzaIPaeftlffOKF1vbgPd67kTsspoODKFxPvyBdIF0yziWfMNT40JNmQUf1QYBIo4KGGtwDSRLIiKMJGnmwIBSqzRFrUP4W2z+OojK2X9Kk93h6IQQmNbOUZxzoTgvOA9z9SQ85TE3Cs/STfOeNIbSw6EyWhJ4d0IMi3svFD5dB+RwdaVxaJNgdBpMftsD+0dYxJk84Hs7JQNQpIZEwdkIO5nILBPpWLR1DbeIwT+eCDZBFExTWBEtOFhO6HCS8MkF0bxRaUwQwizgCSCbJ+BmU3z/7OzVNK0sqgQuGepiWzpJrYkRPwOGChyVQ6gTcx/GnIBhTdHqAqdSXNHSt7t1CieVCT9WJtwdvBsBRqxqUPyD2l8kzdqdPYX5CMpM7d6cPMeEOQKzUoSHprUSOjsXe05ljiI2ATgx5QjkiUCLBSLscpAGUr9VgUCycQfm0nAbIftlfHnI3kCECzUvHpI5nj8uheYoocgSzoODwTGVcF5/BOyNh8hKEOJ5yoaGQThUREqiY1wW4gkX5kQuFAoeFTCIelL+59pcF3b5MukkR86F6yLC/uwMAl6FpaabdMQQxRae7A4UtXKYiSTbhGyws9CHGOSBPvoGf4xPENT2BaACRGfEG5csu0V5bZH/ZGhcZ2ONgbWQQ2Oe8AeAKSd4H3dnuDba4SC0fOR1B0iwmPKsr4JrUoWiT78eTHAJ1C4gaDMofMPvTSTmv0dhhy9aXTyzCyC8HhAmdeqE8KlL6XLPwDBf1ZfZowXITP1I5EGXqtd6MqIE3HjFzFJWTkwrTClMf8VerchmD8tmTaFwPss872Z/3SncG6AIhYt3jfZB3B8v4YMQeT6YOJYHDKM7vtYGJzp57mrTC91agHiypKNZmDmMgsFjfpSfdSYsPBSJo2jEof8DsL4/IxLx4oKU/8Pfj2RJcJb/r8DkA82xy6t2I2SaUp95qtd4kU3h43u+NlTiRpzdpwslB9Wcx0ums8f9p+aw3QrCfZ7z+eIWKVvGrksSTJ+AIGEVbqihI8QRzZuIYHOHOE0SOopVTmNIxBxyOEhQmWroUZakDIEmog/K3iv3pbthbGzhKuv9hfzqBPqHTiYKYzk7dSGzC3UHsTSIRsrgGxzmed1cuHvxJnhOTSL4WH7IWJWNnMSh/gOyf85yn1NfgBLwtSyf6JTqaWR9m6RC4OGDLJ7gQ32fgxIwBmChL+QkMTDpTERoKaUkMLG3NZhsU8VCiYmKEFjAof8vt77um0aJ+26P1ael0qGe21/vxYUZN+9Mh7hW4gYfD5EGPWMRAh+YcF9oZ8NgYWKIISO5Qrh5IxH+UoWWoQQCJjcSDz+gH5btd3bibaX+3upNGszKGkTG5C5amZ+gPOkGF9AITyCP2nuqOI5gOIyy2o9AW1CbSfXuUuyPJINCQVkegxBz4PqkjvXAcFYRICGVQfn/sD6vKV4zTAIY4BhgCnSTje++kY727hjhmgZ5rBME3hAFf9GwQzJMXaRDFK1MEK69EL6RB+TQHDKdIxov2QYx/2ZQoMio7YbQnLbox+7v1WRoDOTIftmxjNjBCN6X74vvhepACWvZesnCBSgEATG8xUAi907VKezo5k1sM2sYVkFDv7ZIa6ShhUP6A2d/t7o2JaXqN7nhf3493mZAK6XR72mJ1P/DGoVatVs8G5UqKjmlqLc0JZ9Nk48QnhbHcET1iOWC8h3mCUsXj/wf56mSsPgwU+hVzqj8skrMlS9XTdaVB5SHlvGfTfjCc29YNCAvTyO4T3+qVEACIxitXAESgg4inEoI8I6DTUL4ogDcov//2d2sGo7s/ACI0d8oWmfh+fDo5C25AEcqi1xCDkj5jG1BMryGTDvMkIHcE3xVGg4j0IsAdRl3ScYir4nBqd1A+jcRAI7oht8T+3t/Yt8mDXUmRYvV45hk0bBIc5QbMdMgATuzdccgUSzmd9GTi5Glv1lHs0JOJQBxeiMcPZVCkQI43KJ82Qui3/cnAR2GYF8GvTKWOF0he8KGbeZKxZ8qhIWbPZIl6cnQ4csQhudoVMi6CjhSB0wBBGz/EIz/mSQemwpd85l1FUg7K74/9c652L8iidKBmPUoQJPOnTnDr+7qejQEYgc6HaXqMABLSbdHZdBbcT5AuLPJyMQjvpwtEdwNHlGLPW4L+nVbFbEqD8rfM/rB96jSm6Qr3WbpXT3PzK8TzSvBFgt3hvqDNlfguWFj7ReeDSa+7BxwolvSxnOi+Y5og4SLhL/IRk42DnkWSQemYEQAwLvcG5WuSB4dp7U0TwWypTZHVKLsx++NrZ/hbu/QM+yhp/KRzn/fjy/EriSVTJ8AHPrzIDeqR3uvoCA3VHBWCIOK6LsL2NHs8xPBPw7ikRjxpKi2cP5KuERLhIAcK1A6A6iPCoHwfjTfP/vR26YSJ8olMyUvIodPJ7AL1usgZWUgWIJfSJ5FPBjGUEZKWp4kAy+QzlL2SG6BkAYPy1YuzJkmN997sn07u3CPxCi7sdZGZEt6jIyj2VkdyTF6lUIoUOai9Cuq3mN68HD3HQ/lB+VvV/nK8m9wtnXWJb8XCDe/kBBHkaFN6MU1zPjqoWdCtoUH0inI85HiKjYORFzm4D18fuXK0qcQ+eBqdBuWHgZ634DjU66aami3aXi4ilHbcsDTnCy/bNJZKNijOAAblw8AbWjhaKMapYzKJXFkulSlWUiWZ4pzjs5gZhBxVFiGm+yK+cwOJVGxFPjncsKIblbehmMBqw4INIanUXGJQvlZZvQ3CXPRHZqjNIWVSYU1ICA3OayQNWUVeSAxOPDyEeXrIhYgOYTIyGZTvhon2CGZKo/7YX0M9rd2HeW9QJpdJpgpsaSLyinGGT29QJpdJZtC3LBl5xTjDpTcok8skM+hbloy8Ypzh0huUyWWSGfTNTvqsvo/TN+i5bBUUyNAXV/BYiPI0mSZSUA7Sp2f35QmK3qBB+akRexsmGDJj2TSZJlLSHCRs2cYRlX71wt7cBcvYPocHfKFm8NNkTOScmFvUZdsPhv+MRoPyad1oO6ZznSRjppwzhZrBT5MxsQn7p7N6sQIyuffamREgwKMakSnzmxcCN/Fjo8lxyspJscA8C6esbNnmye5FDTb/P8vPbOAEFyjaVN+k6Rxvw15Kh4QQk4pzEzqWBmolgsRAFHKKBuVHE0aL0UgOCxbMIQT4BoBAsHH7p47vXQxxWc9SKuQF1zBHBI+ZVCpTGsvCyJGWRJJ0Nopfb8avRrbhWyG78LOc2fB+yY8y+9afv3bZDr26+auXDKgE6xG3PfrWvwNfjtitX78mbqjoe6g/WTP0lb+1668HPhTM5VUMUjtsJqQVRWH0G/Gy+Mxny2QiZ8IihV7ZIIp3n6t+dZVdeOGFdtedd1krvg6cwXEdaWvLj4pn67Mev2QxZ84cu/iSi+25554LOiV2z7332eXfvdyam5rT+s9+bLZddtll9iXU4fkXXhDu5tR/Y/Lfj/rHY65BYYns1QTicSq6I9c0eqErkytzHt6pkfZsb9owmrBH3XLrzXbNNdfYVddcZfNem7sBr60pXzrnFIdsV5a9fcGCBXbTTTfZ/Pn8XRkWJbZ2zWp78P4HrUU/MW72Gn7N+sf/+WO74udX2J/vvNPeXvE2ER1dfN+5/puSn1MJNk938wbW/jpzx17lAigyeEquQp7ZMGRlS1g7nxwJgVmEXNqVxzVlibJYiRDPeughW7V6tYbPZ5562l566WXbc889M7psXfmuM7TuU3/+fru31NgvaJ98O+54/BIFvh+2amiVSH/+X7+wRx99xA7Y/wA74ogjbKed8UNLoYm/l/pvSr7DyWHr1V+O92HOncZ2FW9RqoNqkFYj6qo4CyU1FRXMM9EGIXZsYsXiW265xVatXGW1NbXW0tZiy5cvx+8FdeMXw4uIJrr2jnZrbmm2kqISK8EP+7Kh8F46ctRoG8LfcoVE3odb+YlVAAAMJUlEQVQJb8Y3QI/FDwCUleIHjyguiGxsbrQO/IBgZWUleJRYY1OT1dWtE8/h+AHDIsnL1V9foMujatDU//BTaavXKH3kkUeCrtjq8CsUDzxwv61Zs84+9clP2RFHHWlFOPRQV1eHH9kqkm6F4Xv6XQ9XphM/Z1JfXw/cQhtWPYxCUMyynPz3w/7+0qR0csU0n449U8q4akGvGBGokFE36p4aPOKQKLs3Txmke/311/GFzYkdfsShNuell5RfsfwtmzRpciBN7NVXX7Hb/nCblZWVW+3wWnvp5ZdtPSaEO+60sx122KE2Eb8wfeONN9qixYvgnLW2w4472MyZM22XnXe2Yn5jNsIfb/ujvTrvVTtixuH4kehue+bZp+0tNLKy0iE2bfsdbPr0/Wz33XdXb/b6g0jWp5b4IYq2dvvhj36EFPKwzaWXXGLXXHu11dfhl68Bu/2Pt9sLc16wo4882hYuWmhr8SOJxx57rO2xB34pmyHUvwtzh2efecbuve8e22PPveyUk09GEdz+Adgfw1wPRrpw9aTy2csmwFmUd0z3omcGnwUL3kh23nnn5MCDDkzuvvvu5Oijj0522H6H5NZbb+3F6+prrkmGlJUlFeVlyYQJ45OpU6cmkyZPTqqqqpKTTz45+d73vpcUFBYk2wA+BfBCpE866aRk8eLFCX7sSLwwRCcFBfmSsctOOycjR4xKpk2blmyzzTbJxIkTkhNPPDF56KGH8PuAjo9VRoLRKBk1cmRy/Q03JHX1DcnkyZMgsxKnoPKSJUuWJAcddFAypLSUfkvGjBkjva6/7rrkzDM/mgyrrk4w4cNX2LdJvnNNknnz5iWf+NjHk0kTJye/+c1vQj29VNeI2MsC0UN9gJuR7cWWGXywnAs9nY3bk2qk2Uu6tGDLzRa8h3SOrfdyyYCcG264UT3jpBNPsv323deG4ceC31jwhs2bO8+68TXnMVA2P/z68VGjxtg3L77YLvrKl237advbnZhQff9/f98mT54C+CX29W9+ww448CB74KEH7bHZj1k7funZ5cM7SNyPobkNo8XHz/qYXX755XbppZfagcB/EbPx73znOzY3TC6jbNHiMgS3mK9+9es2Zco2+Kl7XwF//vzPW+2IEahOnp3+4Q+j/Gu23/7T7aijjsZvzY602bNn2wsvvhDkw244VvbCnBftzrvusnH4abOzPnFWEPPB2B8G3URQb9lkaRgnNkXrrWrTSD0JhteksKAg+fKXv5zc9LvfJbh3JkXFRckXL7ggwX0SdvKmefXVVydl6PHs0Zj9SyDu6cmTTz6p3l1ZUZn86le/Snv3woULk3FjxybHHH1M8sbrbwj/+ONPQI8vSEaNGpX86pe/TNo7vCdSvwXAP++885La2trk81/4vPCx2khuufnmZOTIEcn1198gWFdXV3LqaacmxcXFyVL0eGrHEYsjwD333CMcXrrWr08u+Od/TmqG1SRf+uKXksaGBpXVrVuXfPvb35ac88//nOODCflsNGxl+4cfzQiNj008Bt140FNiXnHIIVI77V2Yw+T9EQhxn6YvWktzKyZsrVaBydYNN15vF37pS/Yy7t2lxSX2Iu71c16aA3pKyMkfj3v5R8/8qGTkY4bNiRonUWgs9qlPfQro3nOmTJliJfiFR/but1dxecVRCn/o8jNnHmuHa3LGSSECSKZOmWyHHnqoJoivvzZfeNSXX83mPF17jhgM7OFMS1qAeYlfCzChO/qYo20SfmD4ib89YY8//rhs+Cz2A+64406bPHmyffWirzkymORqCFCWX5/6O0FAeAf5wnsX+9MxvX8/nrUhb9XKRWWSaUG6jAvGdszcVROWFDtWLsfpvvvvtcbGBsN9EhOgPTVbp9w/3vFHe+G5542bIoccfIgMT0OTsggGLUbDYJB8APP5kyf4K+TPf2QC5feuAyDQdZdddrIpkyahLFdJ4o4ePVqTxC78okQ0vm5vRAuMvKp0E/5UFRTyRumZjHSzE044yWbD4VdeeaVhNLO999nHXnnlFZs79xU1vm232ybFj7aSXPLNqSYciUqxPddf+7P+vX4/3iVFyao1QEEblybFckaIZiFljs5dJW7hklOfWFde+UvNwM8779N28kknG3sJw+o1a+z1+fNt5apV1tnZoaUX+fKP3Sw6g/Jjz3O1go5BV0mjoHSq4P1q1arVtq6+zkbip75cXTd7fUO9rYLMEcNxz1ajAC1iyaVifeUL5j1ffk8Fuh6YSNrMo2fao488arglGW5XtmjRIjSwMcbloKwmc6VuzxkybZREYAh1G0D703ZhyzYKiYJirBpJuCoYwYwRcsOUauFAKepJDq8hJTszjZuxvfXWcvSWfBuKdWx+Pl7gCKX77bevjcNPcL315ltY068APCsf0pgNIDcZ+eMjOTlcpXCJjnM9E+O+wV/uvkdrevIij8aGRuzAzbU6rK2HVuMHCPlVLxJCLj6RY54vNWTlo5BQXDeUz7LDjzzcjjnmGFu2bJn94Pvft5tvudl2xFLzC1/4gpPklHQeJFJQAVKMc+mBsr84QmVtTdEAaWBdFNKEchmMUM7IoZE++jnG8b5Li0X6N99cZi3YkDny8Bk2ftz48NNcXvqhD33I9thtd3v6qSftvvvuTeWoFOrkuLDIXU9oNEqUyxUA/ZGTDwcC6U044eqrr7L77r/PGuHo5WiAP/nJT7Dl+l+2J9bc3/jGN5wuOlQyghoyR6yFw1wfbxSERPmMWXb66adrR68Bjau7qwe/MT9aewUo4r8HJKL9BJAcptKEwCm+cvHi0EiflU+MXP17W47Cw85dZARxAHpLzomiCilMtcqVSUAg91sABeb4qQIBQD4/+P4PsXPWaOece65NmTIZEPL2wAnbcAzDK1ettHnzXtOyjr/ZlodRQR2RDKJ8EPEez6E5HZ0DIw613Fp1xuj3RMBnzNhxNh8TuFNOPcVG1A6XomvWrLWp20y1s88+Gxs504PLvcaqCOiYI30BlIjLOYGgW0EB9BOC2BGc1n/XXXc1jmJcdu6x5+721W98XeZwGwvV8XPJrW5/6kr5vWdFanu0Hj6h7kx4e3GrcsjzFEqAQ58KNcXP1CKtlheSbv36Tpu+3/62HX7Ss++kjJxoqKVLl2C2PcUS/BbcpAkTbMaMw2w3GJGOjvKxjMNsfIaVYo3N20ZOX7ODDz7YsDljWFJ5XVgHqPC1r16k7eEbb/qdvfLqy1ZRUWFnnHGGffSjH8V6/kDgel0LCops7Jixdughh2JUGqf6cmjcY889rLW9Ddux/gPJBxxwkEatEVi3Z+Wr2umFjdNsHPjttBP38mXdtLR3ImPr1J4ZGJBj/Um3JfZnZegHEPcO2XVlNt0bizkvfWecHFXE5hq5ubklwdZpZJFDQgp72UlrW2vS2dEhCdjmTFpaWpL29o5eeD093YK3tLb2gjPTChhuJ0k3ZSCcgHU85hLJT3/606SjvV3yGxubkiZ8uLu2vmu98HiJ9cHzgKQFelB+DHhukLRA97jHQFo8H0jlRLwYYzRJzv/c57BTNzH58Y//E+DIPaRy2UiSwchip8WZRLRoBvQOyb7YaY+PDUytgS0CwdMc6tjLIwYKlGRpbI3EzoYMbgA7rzytsUvEmTi5ECm4bOMnhgL8yuOQwrIgP0CBzKdlZfo9+qzGXh4f3kQeGuqR4T2vAEs/38OPEh0r5iI3/hJ2WQF7tg/1rH8Jl5MYYFR/RKXYL4hWQiITElu4cKFdccUv7Lbbb8fIdIh95jOfQbnbjLHsyaEghL7yCfbSgbV/cB6nrRQZhSDh2UwiDu05JYNGQM3AkEtJCc9lnFfIx/ezcxK9IOWU0sVE/+VrGRgV4g1OIcYDL59bzlf87Ar7zW9+rf2Bc84+x6owf2H4IOovZwRzRvnoWlkDIB2yxPNkbHHSu9dFk5pIDuyYFG3MsLIsQ97hzjnHPyIGSMjmyvsvf6dddrX6hgZM7sZiMuZVyPEfePkcjXbYcUc779Pn2fEnHG/T999fxpTMYLStKd/l5Fy1MfujMzBALzkmM3TnNHOHZa+ZsrQ1pZ7NCfQyMI62zRZl0ltb/pt41NuCZ/VjsENXNRRr9T5ha8ivx0YRzxMOraq2Up0b6CM0k90a8p09HNV3CRHk/l80DjT8ZiQV2QAAAABJRU5ErkJggg==;" vertex="1" parent="1">
          <mxGeometry x="270" y="155" width="109.2" height="130" as="geometry" />
        </mxCell>
        <mxCell id="0eFBLOgmWxSDUSr-63NG-6" value="" style="endArrow=classic;html=1;rounded=0;fontSize=16;" edge="1" parent="1">
          <mxGeometry width="50" height="50" relative="1" as="geometry">
            <mxPoint x="90" y="210" as="sourcePoint" />
            <mxPoint x="270" y="210" as="targetPoint" />
          </mxGeometry>
        </mxCell>
        <mxCell id="0eFBLOgmWxSDUSr-63NG-8" value="" style="rounded=0;whiteSpace=wrap;html=1;dashed=1;" vertex="1" parent="1">
          <mxGeometry x="440" y="90" width="390" height="200" as="geometry" />
        </mxCell>
        <mxCell id="0eFBLOgmWxSDUSr-63NG-9" value="Authentication" style="text;html=1;strokeColor=none;fillColor=none;align=center;verticalAlign=middle;whiteSpace=wrap;rounded=0;dashed=1;fontSize=16;" vertex="1" parent="1">
          <mxGeometry x="560" y="100" width="120" height="30" as="geometry" />
        </mxCell>
        <mxCell id="0eFBLOgmWxSDUSr-63NG-10" value="" style="shape=image;imageAspect=0;aspect=fixed;verticalLabelPosition=bottom;verticalAlign=top;dashed=1;fontSize=16;image=data:image/png,iVBORw0KGgoAAAANSUhEUgAAAE8AAABSCAYAAAAVfInDAAABRWlDQ1BJQ0MgUHJvZmlsZQAAKJFjYGASSSwoyGFhYGDIzSspCnJ3UoiIjFJgf8bAzCDOIMqgycCdmFxc4BgQ4ANUwgCjUcG3awyMIPqyLsgsi5W+moZnSyr1LwrmCO2QXYSpHgVwpaQWJwPpP0CcmlxQVMLAwJgCZCuXlxSA2B1AtkgR0FFA9hwQOx3C3gBiJ0HYR8BqQoKcgewbQLZAckYi0AzGF0C2ThKSeDoSG2ovCHAHuxqZG5p76HtEEHAtGaAktaIERDvnF1QWZaZnlCg4AkMpVcEzL1lPR8HIwMiIgQEU5hDVn2+Aw5JRjAMhVnyCgcEGiJlaEWIxdxgYtk5nYBB+jxBTA5rEu5CBYc/OgsSiRLgDGL+xFKcZG0HY3NsZGFin/f//OZyBgV2TgeHv9f//f2/////vMgYG5lsMDAe+AQDKCl93PJ+7WwAAAFZlWElmTU0AKgAAAAgAAYdpAAQAAAABAAAAGgAAAAAAA5KGAAcAAAASAAAARKACAAQAAAABAAAAT6ADAAQAAAABAAAAUgAAAABBU0NJSQAAAFNjcmVlbnNob3S9OwWgAAAB1GlUWHRYTUw6Y29tLmFkb2JlLnhtcAAAAAAAPHg6eG1wbWV0YSB4bWxuczp4PSJhZG9iZTpuczptZXRhLyIgeDp4bXB0az0iWE1QIENvcmUgNi4wLjAiPgogICA8cmRmOlJERiB4bWxuczpyZGY9Imh0dHA6Ly93d3cudzMub3JnLzE5OTkvMDIvMjItcmRmLXN5bnRheC1ucyMiPgogICAgICA8cmRmOkRlc2NyaXB0aW9uIHJkZjphYm91dD0iIgogICAgICAgICAgICB4bWxuczpleGlmPSJodHRwOi8vbnMuYWRvYmUuY29tL2V4aWYvMS4wLyI+CiAgICAgICAgIDxleGlmOlBpeGVsWURpbWVuc2lvbj44MjwvZXhpZjpQaXhlbFlEaW1lbnNpb24+CiAgICAgICAgIDxleGlmOlBpeGVsWERpbWVuc2lvbj43OTwvZXhpZjpQaXhlbFhEaW1lbnNpb24+CiAgICAgICAgIDxleGlmOlVzZXJDb21tZW50PlNjcmVlbnNob3Q8L2V4aWY6VXNlckNvbW1lbnQ+CiAgICAgIDwvcmRmOkRlc2NyaXB0aW9uPgogICA8L3JkZjpSREY+CjwveDp4bXBtZXRhPgonT2nXAAAff0lEQVR4Ae2c+Y9lx1XHT+/d0/vM9Gw9qz1eJraxY7MkmBgrC+AkMqAIKQgkfuQv4C8iigAJCIlQUIDEJDgkaELs4PE29uybZ+t93/h+vqfqvTf2eKZ7EiUzErffe7fq1KmzfOtU3bp163bbX/7+Kxsry+vRONpItcXGxoZ+89jQqV3f9bY2SiI/pHW0bYi3Ldrb1n02kQriFUEJlYtItnmIojr6qNg/zSJl19fXYnF5KTraOqKnuwd1v1T9d/P/8adG4i/+6lh0Li2uxfLymg00HALDh06Gyr6RUcJgqFRpwG2HBFrQa7n5S12kGrUEC+4N86UKgK+6SLXqb9/oFntbLC6t3SqfCr8E/TZdFmXbtvgn9UtLBIr8hwlj2gGBQ3kiyQY6qhw3pQi6PsgyvzLUVzrFkIehJW+BbSF1yWp2V8p84X+Q9KfhbdFpDOSQEYaqBF3UQQYOAKMzBE50tzyyu6oAphJEZoQr5Vueco6wrNcmOYZONGRTRupB1G/wMgSBIVHIuACijK90FwcBrAkGfE2gEziDbUlKCRF4kG+Q+VVUgiUUhAHag6bfDsiPTqy3w8Ujx4M9k3M4ZjfhUNZgiKM476hxfQ3y5rQkVUog13WCl26cR1aEDnB0VReTfcD0Y257glNdAC/SHDo7Ykg2uTzguxw63PkHHgaKMkDzX2YSFzcLBOtoM6Cqa3UPnn4s7jRYcpauUx22P7V7USbGcmVxJq+Y5lJQAVvWTYidzeBTktJ1oVdi0nlfkAAdHZb+oOmXU7K7sxkjAsMg4i4HzmVpRl7SAShTLoRNTILAZ+oVugsKcKUb++RyMZOhjvLGnwykZBL9/tVfrI5O7C8+1BTuJBiV4gixOx735GOJJiXwOCWUk6WZTon7shLIRGheXQtdrMltBhFr7n7XT39R5Hkagc00P860DFyixHrpzusqg8VsTsNPxXJQUJMWnXXbFUlcTHyIp1EFduRZKWnkPSj6DYAuGOtMNnTgFc7UboO/9lQxk7wi4DyYuzD5qcsBiUPndcsgypQ1QKIb3FpPZyclqaFPhAdGv0wVDhl5MrqBh5DKUU1nOwMAxVnAkYfgQBWiMo8ioIIGsYKios6O9ugb0PCqY2Zm2Q3kBkAOMkrUYUOdNGPQpvRLRt+2zujubo+FhfVYXlp1Y7fqT2vRnt0tp0go0+ce9WOz5nlFZHFA2QQSyWR0whA7AgFlfMRPUZYXRoyBQLkCul3fkdHe2H9oW+w91B+ruic8/ur1mJpYatYXs126R/19fR3x+JMjceDhwbh2ZTHOn5qOG1eWYoH7dY012IN8lj6clh67UO2/V/2S5zsMj2d4zCGU0g8QKHkSRs/omA0LbFYtgtVphXNHW2zf2RP7Dg7Ew58YioefGI7dB/pi8upyXDwzG1OTS576ZJfVmGhZKEPI1vQPDnfHU5/eEZ/8nV0xeW0pzrwzFe+8PhUX3p+J69eXY2lhVUIlU+LdSOiQg0y97lm/AfJUBVmOIcQaAP2iwR/SjGF0p3qH0VpGHQyTNdGt7jm8oyv2HRiIx58eiUOPD8bY3h7L6h/sijYtwwyOdGO2VRQbfi79vb0dsX1Hb2wf644OTfn7h7bHoUeG4tzJ2Th5YjLOnpyJG1cXY1EgrhcQf279BZ4ciCpWhA44EmUFwIQV4JJs1hJ1GbHr0dHZESMC5cDDA3H0yeE4ItD2HOiPhbm1eP/ErLrRfDzx6ztiZKwnOjs14jiKcQFpqMqGyvGn5DerHwPVcAuza/H2TydjenIlDj82GE/85qgabyDOvzsX752YiNNvz8a1awuxvLCWFzQ5dK/6wYZel+AZmYTL5IJdYli6kf3M6Mvijejqao/+wd44+uhQHDk2FA89MRRj+/oE2qocmVAXmpHhk1rcjNhzeCCG1ZUd2hJAl5HPwg3B+uYnzdqkfnoMtWFfXlmLkz+bihM/vRmHjg7GQ7Ln0CODcew59YDH+uPU2zNx6sSUbJqOqx8saU1urQTE1vWjEeBL5BUjZAWpxBJssazZbdNS3dDrSjC6oycOHh2QoUNx7NnRGN3Vo9ZfjXfU+qffmor33p6Om9eWBeRyDCkq19YktzprwahXwi1k7FS+Gf3ilb9Y51tKRJDW0DY/txJXLs7H5I2lOP3udBw8MhRHnxiMg48OyMbtGn+H4/03JwXiTJw5KRB1YVlaVMXScJvVb1ikU+Al8lT0IWeglGYhgWlis2fRpSnBU8/uiKO6EDzyyZEYFjBzmn68+9pEnHxjWt1jJm5eX5Ajq7HGJQ5P+dLHncVpEvrSSujltEn9CRgW6Y9KyLEAKFKjRpqfX9UYtxZTN5fj7PvTsf/wtnjkSXXjRwfjsadH4+FjI7JzKt5VpL79+kRM3Fis5knUnf1Hv22WNoEHKBhRPHA3SgHpTxoJmWX3cU07XvrTg7FjT2/M3BBor0/Gm/8zERdPa2zTwLyggXm1TBHsk2T72YdVsHSPi1UmaRWgaBP64THI8OrIxQpSCCir4SoDVNpqYV6PGJYWY3JiOS6cno89B/sF4qDGxKF49BldWDQ2dmhmcPzVazE/uyIR2JI2Fcskt9pKsqkfE9xtSbhLUcifncEc8fOjg6tte1t77NWVlOnHxPWl+M7fX9C8SlOCKxqINeasSn/yNgUwtpWcZef0oNhIieSaR0odVXA1q9+in0zO1zAIt+yaRDjE8c0FDY3iWdMjkDU9p7mmhp1UJF46O6eIm45PfX5XPP2pnb64nND4TE/ZrH4rl5EGrwRqDuAgjWU6DBwGFUMxkUlpZ1ebxrOl+MmrV2NldT3WVm11ypQHTG3aDUbWxStPc1KspaOlqNEp6/sCcgf9xRQsk8i84ID0Bl0CxP25vX49kIsl/dA7picWY2x3bzz+zGj09ndqBoBhLM5mY3yc/636MVn8VFRbKUP3ArA6ZTCzos15eFSGAg4AY+60tiIuRywOpYy8xZIcdwHOYiHNxwJSJ3qzhTavn5ocyLTpLePqXfWrypr689LyhoaXtbyIFY826z9qV9XFpmcmFHmqJZ9sjX0FQPIVEJeRhaoyALDlgKU2cnMl3Y8iYTBa4rN31AUcfTWJJSJdR04nK/qhtUcHsq06E4xpbRqT+GMMM/4wyANP2iWLMasNgUQidAslzwdXUyYyEJA3BCmfMSAbmqARh2V/vP85tEVcunIxvva1Hwg8nEKHlVq+HTBRNBUXE2xHSVOBejpjB0YVI2uiRp+FwSaenp4OTaCHYmZaU4oL83H96rynPdvHejWt6HfkT15bjFPvThnMke3dmg4NGSCunJcvzHo61DfQFeP7BzwFGhvviZEdesYr+fzdXj+NKxuLM9jqgzr4T2bT/itqF+fi7NmzjHmlFSyBFiiCEEhrlHJWIuB14+g32XRWc7NmRwnc9KKGCLeKq5naN9gZz/7ujti1rze+/y+XNP4s6O6kLQ5rvvjSnx+yKf/7Xzc1R5zUrVbE3v398dJXD2jFpENzs+n4128u66q4ptux7vj053bFYc3hevs6Y+duTcznVwxOXnwSi4wK9Mu20tD2AXvd4Lm+YsUYLcvv5D8+4uWesX3xmT/8Sl4wqOwBHT0Skm0BjbwJbhixGRlOVuiz4U0+GekLRaE3jDa7FKt8YXY9ZjUtWF3SwG6+iBVdqecmVrwKwhzN3VDKVkWfnV6N7q41z93WuTDJqFWduTrO6laMC8HydnY8ZAN66ChAVP0Aagd8Su/wl2crBkt2bN7/jRgaGo5nn3u0gpctATg1tK0QAh9aSSBakfJJTlDtP+X8wQPBPzoDPBmztsXCzGq8pjnVaz+6ETc/WJCuBOLsybn45785o6uN1vsmtd7HkCVlly8sxHf+7qzHvXnVnZ7SXEh0uvCP/+ODeOMnN2K3ovPFL++L7bp6frx+2aZ6UicejMNW2ezWA9FN+k9N8bZrD013T2+Cp3y5TNtPKWmJIBSm/65oIMCkImSDcNY2ZKIYJ5K4MDoFLCnaLp+d10rHdOhGQIdaX1eCSQE2O6M1PleQY5ToZ3Z2OU69w5KSCmQkV0oKl3SlZL4GyMsLCTjgWaR1JTgW19BfwMNZHcwskEUOks9K+ywZjR6EylSbpfAmUx3zKIWCUJiLIosiIEy0EnjspMvEB6GUN6wQBT9zRClRmzCqm63HKshZiOTqzHreatGZY1HTUQDzOMouLGviyqvuJkOJnFXNgm0fpclgcz6sn8J0GiHUhRn11KsV7+I/VfWXwaBJMuMLt0z8ucgy/dMAC1iNPk0kRc5DIK0M+ezmSmTO9BRFKfV1dhXUkwT4MnVxHm6VZSVH1fD2nhgc7oobH2g9TosOFSQkuLZ4keXpCfJ9FOk6pahCdzkaucDBiAT9yoGMMuca+uGoIpGQdhXZqkvt9gbwhdNg6McQQavfKgwG0t4zobQ+dbHUBZhkWdTFoGwWIspzKZ8L6IUl2aSzNoZ0dOkKe+zJ7fHlrx6Ox58atZRiotP5kAk7Uz5zyI/Vn7iAlD7YUfRjHeZSsQjHvRw7Ma7lW1nEYJ0qy9lkwwQE5V+Bz+CYiuKqSTJpisbg6zoQmw6oOA/qJXvWN9oAlcVdXRH79vfFwYf6PZ+r+llcfeI3RuOxZ0dih8az0Z29cUSLrdt0OwUI6PKgb+nK2fmqVGU1iX5sVd72w29Q0G+iz+hNyt38p07qL7soQBGCDpXZEDE4WoiGaiDnrCdGEvpaJ1Ajk7y+1K15C8y8SMlfPOvSpPmRJ0Y1lzsUL35x3AB5sJTcsb1aRnp6OG5q0WHm5ko8p2cUX/qzI/Hsb4/F8JCW9It+66li76D/w/sDE79ir2Tdi/8/5/48cJL54IUXdijdcdbAVR4aA5dpDC0w6FHkMT3n+OwfjWvVdyTe+O8bWnAA27bo18R3/0MDsXNvb5x6cyYuX56L8aNjWtAcjj2K0m393VqU+MArO8iyxtorMudfl6iw9hBbKL5qG3UpI+/AJaWEumP2DPzCYitJuz12I0i8W9yfx5VXyhBWhOb9LFlrSGXiQamv2qjBATunK6f4+tX1iKAXXt4bB3R38Y6WhP7z25e1UqO7BFk+uL1TS0UDMT+9Fuf1IOfy+TnNDztiaLQnnnl+Z3z+T8Zj22BHvPpvV7BGmop+AZHj1Yf1Gx64ZDt2kXIt1YYofoMqWgETMjzpFVyAKG1O6kdy1G3tZgEEPMUOOomQjatCCG2EodxfSmt9pbka4kzWBSg0wQxJP1RWdnC0O57/4p54RBujr11aiu9941KceO2G7zRg2rmzz2VXLy34Cdiy5odn35uOV755Qc8pJmLPeG88/wf74qieU+RYl3o/Xj+6m/q51nm6IXPQx19xV+ZRWL42Fx/Sb25D0VT91zWqOEgls5Hn0NkwkyxckDACEhIkjBL+oBorCpVJkzKTdHiyLrvveb6xtrLutcHBoc7o6XWf1dP/dkXjoC4SPXHl3GxcOjdj/dwDb1NX7+7r8lLSjB6cc5+Ltdlsd9afNqZ+AyA/OFuADWyWYbULPuw/1Oq/0jJJAlTP04TiHgbRUgUfy/fykGkyI/UgSmweIVwTA31gU+Hh5Ik3BakqprR8/91/uMAYEE9+ajS+oJv/Tl08jv/gqrpjl1aqB2NO87pLZ/QsRFsoerd1xSd+bUjj44E4rMeab+kh0yvfuKionIide/okuDbVx+nPhqMUe+qVOXtD1tmM/wlU9a08w8iISM9SsDTIUwBwmSNPMIulGmA6rWBCltkyfrDQBQAnw4lQ6mYIxoruMk7pFm35b8/GrO5Xn3thZ3zy+R1+TDk40hOHjw3HNd3X8tB6Q3cjfb1teh68PcY1VXlLjxa//61L8a4eNi1pS0URmdqs9/b6sScblHIbYxOxjWq16p38T69wOHHZ0v48lKYqmyIRRq6c6ymFp3i0KE+9ArTnXCKvCcDzZ2biO/94TntMFqK9g2ev63FYjwl5rPn28Ztx/vSMQV/QMwgeGfKY8MTxCT8RW14VcOmypHFID6prV6ul1l+sUVm9uiaAVOHvVsCRW8XYG3qcNYjTYKtcf1van0cHdQulxDTWBApqAh5EK+pkgdf6lPEALR5a1q0rdm4vr2l1hbW9np72GNCYdlSbdlgsPff+nBYA1K/Ft6jzG3pC944ikZUZ7ndz9Tj1SJUOMWIDjurUqv+2+wPNn1UajmAnYPtIwHIfDffTDfENXzpzf17zLRuQRa61+0dCkAdNP5ibLEj7CKvrcdVzhKk8q6ZmapuCQIQgS2e2ZSzogfUuTYzHtFB6TavMp/Vkf4OtBkxfxc4TflZlEKGPLUn9NkyUcqjwI/pdIfWZq6VKdlMRCDWAv5v/4rM4nbe2P49aAFMsQJ8xMKVm3AlqQaJbahSXZSPRJ34J8vyvrGCyTnf8lasxo3Hwoq6y9sNi+bHS1E89pby6QoENqgx306/eQAX0W2itn9ns1ggsQaLinFmI5IPAUEI/W9qfV42sam2z9UBRwh/9WKFOMhCoGxFnncopoLjSURVmysnf0POLf//mRdOJRq8ywiQUMyAQzBdSrS+1pqU0j61IxIwW/cSwbVG9ZBeDZgrUQr8RSdGWDxWyGW6nX0Vb25+HpPxgmZKpIB0zSUajUWwi1ouEQUhvVIKhULLLkslxZSPnb4q6dAZWvEFLnu2g6vqo+ikVIDqZvY5vt+qXDKvNLocc39RLBl54aQ9dHLZbJ+ss+Q/rR5/486E3mXKkDASlQYipS04eD2AACKqkRT6RNyBKWLblpUEGFF51zw492enQ7qoNNrIQgSJDa9cjRISyWMrqMul28bczEzXwmhArGA00dPF36HElD+AdP0U/UHtYuEU/snMqjRkAg16oHD4XDO7mfwNUVTJ4kmUJDn/r8Y+JFiwGK1WGVkYARnpngLjchaQVHzkQlz+FYH5tftQOs/EjWi25OqwdSvNxUxtsAGFU96x7D/bZicmbS3HutJbYpXBwRI8YtTeGXVmzU6vxwWUmzSuxTQsHu8dZIOjyQsHgqO5OBPid9GNPXsTshP1N/uK8TN6U//hmf8p2i0Qm/TUs+CyZFq4fR1JBhDXHLBYndogVGrxECGWWZyb/iJbRw/PWp3VjP7KrL36km3r2u7DZka1qn/vj/Vb65nHt5gQ85XaP98fvfeWg7j7a48xbM5rSXNQjxtUY1r3xc5/ZGUe0YadPAO7evy3vi23E7fV7zHNYYXHawzJ+BhwOOKYSljT7tv7T+9bW9DBqeqpGHtGUgkhlaDeBqN0WadiHcpdKIV0rbRKlEZ5mgdEHso0G9Un6itGMFMtFiGTjgsv1hIpjXbwba+rm1DECKapN+zbYsE0NG+V7QPJJsr7MpUwIjV5DEv3YjkPYhf0lhUjy1Bdf03+zxpWrl+Mb//Q64KUB2QIqLA4mginYLqMEJtuadbILQ6dethzJzDfPeTXkme1KHP/e9fjZj6/ryqrHXhK2qo1Cp09Oxbf+epma2oTDVi8BJ6MvnZ2Nb3/9vJep5nWvOzW1LDUbcVNd+0ffvRyv/Vj7nxV1L7w8rnvcfJ3eQmyPUuXsNrWfFSyV4QIFfJVxwyt1Z/9VLP0TUzfih6+y3QINBgVBpC21qLI0t1DqgCdZ4PIDEFuojOrmEkEBsQDN4F335/FKPislp97VPavoyOSh9YTAYIMhMhwDGuOQP6MH3jPTEw1eRPJdVNc9d3rF+ha1B+8ZAb5T+wVz4uHYFZ8YMVdnAhaJXGzUUSwb/S63/YUI7S7+w7Jrx5546nNfym4rmVbSmBeJIQXrRFqHB1ubAEFffQyATRFJMgh1Cvg1AR4JIA8Yhlfa07HksrHwuPvDlRBQwf7xQ02cEl/puclPiejtpgo0qou3obHqL+dsXHhkqXkz7XrSczf/q/5dY3vj5Zc/K7063C0l0Bmdq1wDVzKc0vCSwmGSONf4piw3hqQaeZ3wioHW8hDiQ5WLB1vTT+UEqur/8P682+l3LdtS1WI8kjCf3836X2tpeoW7fKm/mf15cNeDaLF2wCkOZRfNBqjjCNjWW5w0M3VatxHdun5k2nQaA7T05XRH/bBivCoz/XG0WL9IpS7ZOmWBlwUI58GIMupzKLHl/Xlc4Gjpbq2xDWketqxXolgZZrOjscQDo4WhqcpdV1a565tks+wJNK5m1HEA6Eypo5UGKYa6S1FWqlK5qrInkoH+dFzAiK+hXzIYDDo0Hezq0v9q6eVlm25Nk7iic08iuVvQj7lI3/L+vBUtQPIO2ciOvnjhpfG4ponrFe2bm+RVJa18rGhNTtMgvMB+OwGGGXnWakgTFADIFk0kXC3ryRloxhU55XCEW6B4U5xKJM36OJesW4K7F01mu7XMr5XqUe1AYE64W89AjmlHf+82reho3ws76Lei30pkWE5V8MSG0AIoh6CD1sAwfWg5Wp/3HHhBheXvT39ht5bLV+L6xQW9UzYX1y8t6gWRRT2f4HUlgaxbrdx2a2EJin4BDDAt0/KldDP6qWvGNBh7ElxXFn7IbY8uAFNU9W7rCLZs7NKVeJdAG9crBZwHtdTfrii8fGYxzunVh0Xt7duKfjBBY96ekUGxCE1joJFPx4yn+uxF7U769tfPypB+3WoNxJhukw7qDaD9+i5oHjZxYyUu6OW8ywKTTd+TmoL09HYqAmiL6rzSUtR4trFZ/caMnyJLSduYhOhSd9yu3aRDAmyHdpvukW3j2okwpobuH+7UFo42LXetapeWHizJD+zkjSDuWjblf4t+FBfwMhJADyHASnQ45EQjSup8iU2Fb+rFD55BjOp1qO16TEg3OKhXNncf2Bb7HxaoMnhOQN7Ug54rZ+Zl8LJeduHVqRLJVoFgo5BqCgp30m9222VRRg4aB+/bcrvGC4J7dT/MFo0BbdlgWJvTU7YL7825d1w6P68dqWpUTdJnppfVO1Q5Bfu8Kf2ygdgzeNjDNMUyOCvM7rQ/jSjkpQ+AvHx+Qe91tfuJFi3MI8NxPe2ni+wXiPsPDWgsXNVW2j6ddXFhd6c+vipKF8dW9btZMUIJNhyxQtOjVxyOPTcaR/TkjRcJl7Qyfe69Gb06OhdXNdTc1HByXcMJNrOz1H0AxcjQdyv+e6yV/jLmYYgk6MhbRBlk2woNDYoMkZSiTOmykMg7ZXNauJybm/V42NPXHiM/1Tij5fSdu/s1xigqH9HTfxk9IQcmtRiQ4lKaFaF4y/qxRI2oVZZreoeMbWhzrECrO15StF/XA/Orenn5xrV5dUvtCdQW3Vw3xBfVRT0HjnJsUT/8W9qfZ68FIWYTuAlwoar5AHJeQM7PzcUHWnLq7ZuOAW3iZnVkTJuueW/jyqV5G44UmoMIB4RG09iXdIiI4OCUziZnq/5Z7Sp97YfXBdaSngcv5Yt7NxcMGC/YsJ6QCqoeTWkk/hehvxMAEvy0NBtAg7nojdbBA9wTi2FTBU8xIIvJ63o6N8dJgNRYM7PiL69o9umlYg52rVc55FM3qXvTz7Pb996a9uvxS4sbfo2rKGgIt60Wb+vlSfqB1nvSDxZyIrstmSIwU+mKVaEUsIiQqgmElfYp4VR9M2KPDuUkHJkw8RRsYY5cyqEgyyjPDPmma1vTzz9lWF5Om7INbtWPJb4Q/CL1S1YuX8hB5lw+8MWhIZWOJmDJMlL+iCdpGEytBKpxww9gUEGXlOQxjzer2TPl36LrQdKfjhB5iYsjvTrqKw+eGStABANDV1oQBARGFiSfkShgFTBTHiAWYYgkiqkuGg1Q534WRYkSD4r+Le7PA7AmGIDQdDSBAxDgMTACAh6uzgaSX0Vj6akUuGE8NTIHrVXAVV4Z/VGT+jSiUkrWxoD6q9BvB+RH3tsWw7DRbmMVhyyvhuNEjmPiMF864cFYZdktEzojopqNlXF3XwRmReigkLdnVmNgsjjBhft+1g8GW9ufh88NIJwxuACc4OKxDmWAEZpTxiyjMSlKW05GkkFtcIvZB5VKmggVzd/7RD+2bGl/XgmFBLA4VkHImKvOAnJCwMnbzAQOpeTrWOkubCq0BNflVBVIjnARqFeubM64AX+l+jHQdxg1RmQihlavVUjS8eOWxy2qZJSZGZIRETAVGYSYFUIBzjJTXtZTGTSzSEPlh/QA6McvcNnS/jwDJ+fwNaMpxRQUyilBS/FoUV4VaiPk1bXQwRARyaBzzZXGqBSi0Gk13H2hn16kyPOVC5tpfpzBWR8FpNKdfMcBCLCJJed0lbfUb9REtAAW4////zyDBTJEBMAADUR/KHC2nr2srnIDXXnINOqprkVIUu2mbhHJa+Rhh0mNiCqq3w/6Zbitkm2dI3rnYWVF951Q0jwlq6NJcSFOVbImVzhU77mTbpGqUM/U/eiBai93uXLhrXLFnh2ihVCV3kf6eZnQy/u/9eJub1NtRIBQIY35rUe6yW89qoPlXJyr9cj6/9cpZACkLnVRuwRURpPGA61uNSPwAdDPv7Pr0T88bLt0ZtZbPqrTBI67W0sEFXhKQQLIr2f3QCOHiUQ3gBPJShyJqo/O8GROv40Sp5FFmQ9l7nf9PVohGtam8zbthcP2POQBOSKleGCvKs0x5Axg+JNRRG3yqoYwJX3ORKWUMnhK3QYf9TlEqLrud/00sO7TMbceTUcbKDQTZmrhSEdxWCUAZ7CqqFvOdyxs4WzhayQbCfO15mo7mtZa0CIxk3csbOFu4WskG4mP6P8QeAWIIu7Wai06WsTcmadZJ/ma3E41sw3GVlJrusHQSGTpnXkazCUEmtxONbMNxlZSa7rB0EhsxP8BvXlfq10q+5IAAAAASUVORK5CYII=;" vertex="1" parent="1">
          <mxGeometry x="481" y="154" width="79" height="82" as="geometry" />
        </mxCell>
        <mxCell id="0eFBLOgmWxSDUSr-63NG-11" value="" style="shape=image;imageAspect=0;aspect=fixed;verticalLabelPosition=bottom;verticalAlign=top;dashed=1;fontSize=16;image=data:image/png,iVBORw0KGgoAAAANSUhEUgAAAFAAAABRCAYAAABFTSEIAAABRWlDQ1BJQ0MgUHJvZmlsZQAAKJFjYGASSSwoyGFhYGDIzSspCnJ3UoiIjFJgf8bAzCDOIMqgycCdmFxc4BgQ4ANUwgCjUcG3awyMIPqyLsgsi5W+moZnSyr1LwrmCO2QXYSpHgVwpaQWJwPpP0CcmlxQVMLAwJgCZCuXlxSA2B1AtkgR0FFA9hwQOx3C3gBiJ0HYR8BqQoKcgewbQLZAckYi0AzGF0C2ThKSeDoSG2ovCHAHuxqZG5p76HtEEHAtGaAktaIERDvnF1QWZaZnlCg4AkMpVcEzL1lPR8HIwMiIgQEU5hDVn2+Aw5JRjAMhVnyCgcEGiJlaEWIxdxgYtk5nYBB+jxBTA5rEu5CBYc/OgsSiRLgDGL+xFKcZG0HY3NsZGFin/f//OZyBgV2TgeHv9f//f2/////vMgYG5lsMDAe+AQDKCl93PJ+7WwAAAFZlWElmTU0AKgAAAAgAAYdpAAQAAAABAAAAGgAAAAAAA5KGAAcAAAASAAAARKACAAQAAAABAAAAUKADAAQAAAABAAAAUQAAAABBU0NJSQAAAFNjcmVlbnNob3RNKLRoAAAB1GlUWHRYTUw6Y29tLmFkb2JlLnhtcAAAAAAAPHg6eG1wbWV0YSB4bWxuczp4PSJhZG9iZTpuczptZXRhLyIgeDp4bXB0az0iWE1QIENvcmUgNi4wLjAiPgogICA8cmRmOlJERiB4bWxuczpyZGY9Imh0dHA6Ly93d3cudzMub3JnLzE5OTkvMDIvMjItcmRmLXN5bnRheC1ucyMiPgogICAgICA8cmRmOkRlc2NyaXB0aW9uIHJkZjphYm91dD0iIgogICAgICAgICAgICB4bWxuczpleGlmPSJodHRwOi8vbnMuYWRvYmUuY29tL2V4aWYvMS4wLyI+CiAgICAgICAgIDxleGlmOlBpeGVsWURpbWVuc2lvbj44MTwvZXhpZjpQaXhlbFlEaW1lbnNpb24+CiAgICAgICAgIDxleGlmOlBpeGVsWERpbWVuc2lvbj44MDwvZXhpZjpQaXhlbFhEaW1lbnNpb24+CiAgICAgICAgIDxleGlmOlVzZXJDb21tZW50PlNjcmVlbnNob3Q8L2V4aWY6VXNlckNvbW1lbnQ+CiAgICAgIDwvcmRmOkRlc2NyaXB0aW9uPgogICA8L3JkZjpSREY+CjwveDp4bXBtZXRhPgq2Rds1AAAhS0lEQVR4Ae2c6belZXnm773PPNcIFINQxSwgoEFFUIRSiFPi1C1J60oPq/Mp3/Kp/4z+2GvZnZV0GzEQh2hQIIIRIiKWAiJQlhQUUFDUeOZx731y/a77efY5RUMN+EFqLd9zzvs+wz1ez/2M71vV2HXO1asR+m3oVw+e3FZXV52kqNatNqhUuTkyXYkaKlxdbQQkYhVPJiQpkg9B9UI2NbrEc8bobzajb8tEXHr338TApZfYxSZo4AJe45CdWpcqmBUQC3hm6FiAk/CnlC6/G4OcBehBMoUnaORdf2bpL9HRdaZpj4VCI4QlOAAkjuK4ftdHIq4SMAmEqU1LqrKsTzQkw5iJyU/dzaUbeefMeObol9n2gR7E1QQnOyNUVvVHhX9UmDGZoCWqqneXM28WKVl74VoiZfouOXRv9K02mlmhFiqB6ecZpR9H6iXDezEeJACNO+FVgRO+Lk2vE0giErJ6ObaIMJepW5fKlEuh6iw/pVKdjaCEyhP8M0d/B3QICF3YrpBIJ0u/VDVRIhiMUzptYEVX+PRUSSImWkQgQ0nA4lnqUpEFSaRo9Av+VK+uAjYXd/1Vo97h+m0tTqbVstbRQTbHwEakY0DnaAMWnPYPXOkw+W65wOAiTy0JP3VfU5hllTvlILjSnhn637ii6MVZu9B1pHZHOaQyGJIC2LM7OsDIqqYCmoC5xECCXLfM6ZoDM0Vtl/cM0i8sjEnXM42B7oryzXjwdAJcAM+QORJrnAAbF7HletFnl4Q4mQ1wkmWZAFtVZCfYMMOUuhyjZ5D+4mH1rkwiZIsTevjK7oufctHd1j77Bk3O2IU4OSouiCqXUvrNhiB6K4YZ2ce1JnTiqrzvSP12hyanV6atvet3EI6K6oHHRDkqSoiTQ3B6KaISHHYFlQkM2WRf1y0Lsx8MB2ZaN3dJcN3BnBH65aMDAaflVJPxCKftlxL0LoNAQXqdZS5MACimDQhMd8HCD4nZah9WQSZTqHngbTDpWLjozzD9snv96qLXjtjzdN4RaVjSafvpMSuhMnjQKxINgVFUnZDzDKUn1QkxYKXcUijAjo/ilM/SKaO20SxP5c2T/X/NTAn0wtwLCGikgDL4i7L/T38HS21tqkMw2TJmpx6bYNl4QGPXctPJDsvliZ6k0CSiZFq35gRhY3U2Xob5aUKx6WdkMPrPPTt6Nk1Es78/NSMeR+DkV9kES2VyruM6ZLjCzlq36rLRUj/VZrYFytQJhyTsNgwxyrF88pNCCN5Ev8BrTU7G0r5XY3V+McW7cbI/pKfiL0OTm/+t/McA25NGwFt2ItSUQttCFEgU6SwmQGxjz8RIjH7g+hi9+YMCcVs0B4fkb9LmWKa1ugxo4p9YuJjp66SDXAStaUw68r5UbUwKHWVd2m4iSTNbZIvvzfR3Wq1ovX44Zh7+Scz86NFozc5bIM7jE9asNZiqKNDtrfxPa6q1jVAXhiGLQT8HeVIYli2aEdiJZl9/DF11WWz+8pdiYPu7ovXqAbXuVIRamYjDmk6R1c4sXkl4VaikstCmoVm9Xn/So7+ec+AoDFrg0xB2mUkImnIVmW/Uz0jbf/bWGHr35TFw2Q6BNxuzDz8eq+2WjXBDiXe9/hP57yWfI6kq1jrQya5T2SVscK2wwdgrlzaMxfD73xvD118bi089FYfu+na0Dh4qgEiIPSpuYVi9jJoy4KCfjOZC4AcVqlEFWHVbI6ltQRYngIhjHGJoc0nhVSaV8ECW6gfOPzc2ffEzMfre62LTZz8Rcz/7ZazOqZe4BSHUJTq3URkS3sp/upXtK5ggX8sY89OgKrYFWFUKecoxEdEyPePDMbj9olhdXIypHz+qLvGT6CyvFLvTYJhzkBcrvCgzv2QVDVVPt041FWNoueqkwLPyW256UADAeKTpKQGQKrFOf8TS7t9Gz/BgjFx/XYze+MFo9BIzS5gCl2+wnYr/2MuawfrwRbb22j4VSb2kIFIVSlooOWfSwEZvv0AcjdaRyVh+4eVoT89aSMdOIdAM4qWFlVE5cp0ETMniNKMaoEFBDvVE//nnRO+WjVpUYV4qNxUinE/9JBGGSSJ0o1onXCrrArzajqWX9kfr8HS0luZi/tfPxurycvRvOzuiT7tX8abknLiw51T8JyBwtTYUMnIvXAziIMFEyC/AVWfhbOIgYdxejs7igp2BNGkNFX4ZvGSXYGSnRgip1JPi/Onftjk2fPr2GL7uKvUQHEoju2AUavMWPtLpclpnEuRJNENNp9OO6fsfjGP3PqjuuhidmVlN2G1HX6PRkzowDCP1Z/PgPYn/uYWHp2pUBNoECrIJu5WQZKysRZMVEjUMPqI3SJZl7UWu6mycJJNUVcpJQw2MKQWW5DCTj33o/R7oV14/FJ35edcCb54QZcwiCNBKpWvfKB9TmhvGo/fss2N1QcPMDx/R0mUpBJ15GYaaYmqbUX6s93l9GkG63uh/1Wf/VE/ekwi8uQ4qB6I4bVuzVRGWuwdcAG0A409JEToaiJys0V3guBuLxGGhOstLo1RZFURjaEDDwriHg8n7HojlvS+5Kya9+HoU+RMT0SdgmiOj0dEM2pmajZVjR6OxuKTIKsdv2CK9I++7NjZ+4U+jV2vUhnjTPh4OFduPnTaIpy50nZr/PZZTexH+5zoQ/uK+hStHPscxV7rWekrKSpGAjUmiuy4qXJAV4MeC1xIhp04EwM5akYGYqGwfPRrzP/1FzD71DIUZHQMDMXzp9hg+79zo1x9Arq6sRGvocKwcORLzTzwTS3rSI1CDY4ypE5+8QyLWhoMuWLYFG1J/tR3WU/Efu61H9tpF3XqtlCxCc3RNBU6LgWdd8SuJgEZ/b/RuVFScvSltk0AAYt3FZSV+pqHkqeNpxXpmrhO9AoX1ZVtdrrW0EJ3ZBYO82teM4WuuiI2f0xLkj643MJ0F1WkWbb7nqhi++qqY2rghjn7r3lg5cLjIbkRbUWlLBH7fVk1MPXoVuXmjIhlA9WsHdFPCMAD6KfoPL+xcfupWTmMoQQGAud7Kyi2BlXKihwDrPeusmPjEzhi68rJCLCaVp9SS6OYhUcbaa+EazcCOd0Vzy+ZozcwYZatXNeWbvvAnMfaRm2Lp+Rdi9ue/iNZrr0ejr0/vZLfH2M03xqYvfd4L+cnv/ku0ZzR2ygVsxBDG1k1/9kWNqQvRu2EieoaGbUe6ZyKbRfTj06n4j3+50EZHXrmMQaqibH2XpZrxq6Je7DJGdKURLUyHL7/MAq0/5eVdTDaMnCuztXM8xD2MllIdHDCu9Wp8W8EL2yEeRd/oh2+MCf0t7X81jvz93THz+BOxOjvnHtFz1pZoHZ2Ms/7Tf4zNAnnmZ7uiPTcvqWwEJEe/fVs3xcQtH4pOq639el80Btmzo4ArnwketqroVPyH06xVDhEIb3FSyQJicabQrfnmoI/2Ye0tH3w45vf8tii3FJnlhUAxD20WyK1k9CAtR1YBT8nByy+Nsdtu6fpGI/YMD8Xoe66MPkX6wf97V8z+RAAdnZKdAkg8nYVX4tg3742xGzV7X3NlDG7bFq19B2KVHVoBaVnRevSb31VkzkXPyHCc81d/GTE6ggGWkaGqmVgCT91/5FcB+dQkUgbGXOTIkZJ3vajVL2gpDOcBKK0jx2L6Xx+JmX/7ufNpgOqU8K4FYhHWZUJVSuuRBmguqMZuviGGr71GtNBnaVOnPT2Kctaci7/ZG61j7LfXZttOqxPLWigv7XspRq67Jnq3naU+r+G8pV0RovW3rH36se/8wJHaMz4WW//Ln0dzbNg60zbpt8LT9F/DRPeSzV6Wu9UKSMX3gnR6bFBlmRtXTq6qWzC2tDnZWHdhe8HApXmElVGb4pFhCvmoJwGlbWG02y7vym93tFzJIaWpMS9YjmTwWQESmG05SvPLesBVoSc8NJOWzM6cJiWNjdHTw1mEyok4PUTM0zbhF4qdSV4qs9EzcZz/nJaYOx+sJMzsZ6lioKwtmdUIgkxPfiFGA3QyrEHXKovrVT1zoMVjgQAddRLgLsiSwzTGBPGIrib5SbdrHzioffZSjLz/+ugjwugJ0o8Jzb4e71wGL7tUDbAcK/sPRGdpJWUhLFO6Z+NhJ3wl18UKMlyhwM+SP6n/8JRLk0gxv0hgDHJjqDiLHCsCDfVpHTym09aO/WtTe2TqEmCnZG1uvA0PrUw9UbHiUBDtGh20VZvlLq7E9KOPx+hNH4gNO2+Nlvbcsz/6cSy9dij6FJFDl18cGz//mRi46F0x89NdKn9dbUWDyfbqhyXiC+CoEH9wjEvZ4/S7IKtO6H/hx/JqsZYxqbFbZGeymlbLOCkGuBnTIE7resZHdD6os7aLzrfx2JFXNTT5XC7/Fvc8r439Hu1PF8RdG4YFtdZvNim5e/UJWUNRtqrD0IGLL4otf/7FGNGSiRm5MdAfI1ddZRAbwxrTZme0Jt0QK6/qWG1Fs4jBqPYXN20XtqROVKGf67T8N0/6n9yahXPWkkQ5UfWwJSIqHIk2yLr8FUc2sRYMMob11cTtt8T4x3Zm6wKwfrsBhViZSqti8tF7/kkD/yux4v1u6oNWv9KlvOgGt58rmTsl8xad0GyKxb37oi36QX2PN3TNux1pqxp7FzS59Op0Zej6a2LLX/xZTH3nuzH7s18hSALTDq/e0Z8K7IQtEQ3aKT4t/2GWjQQbMnHLpzHWqZJuq6RoqE2UBmAbxqUQEpzILDy7RzuTga5BqtWFpHyZXg2Fd3nPXo1ry6rGEl0odpIVXCf6LzgvhnZ+JDb+6acM1NT9/xpzP98VralpRdnG6B0b0RDQirbecQDqwIXnx/hHbo6J226OAYHZ6P9/2lsPSTCNL8GWnxaQTNt5pn4PS4XMw1Iao/saMSAd778BSNmi1NyPI+SZn0G2AAknJcpXEAwwxeKhrHVkKibl5MyPH3N0WoLl6abZysohlsFIXZXTqzMcgyEXMSQkT4R9GzbFps98MgYuv0RH73Na530vph/UuPfya9FYUQfnHE+z6arO+hrLyktAUwel80/tjs13fjbGdt4aZ/33v4j5Z54TkH1qgOPtZuRFXepL/WlIlp+K/ykg724QyeueSLu1cMmtkx7mkkPOWzEGpVHYgiUdORbHpnU8NG3DEmghYuSSnrG9yRkiZbq6R2HKU1KKo+9d5+nv3Ghp9j369X+MyX9+QAcGx7TEkWgINR6m9tIYKmpPz6nbPqHF8rR2NDotv+B8RetUHBPv0osvqYco2gFS3qae1EnrMVyUtvPzVPyHJn2Uci4JKG/laoUsFRE/SugvV+qmNHzYo1rglwFNHfEPXXqRus82cUi0F1vwiUMki7/5bcw/96L3tUOXbdd6rDeW9+9X+Ytao2n9hyzTakISAO2l5Th237/E1P0PxcrhSdVXc6GiEWBROlWgRuZ2YvGZvXHob76uMXksFp97XjZq+aRDhY5eY0Lc1hJn8vsPRM+GDTqw4LABARaWjSOZqUllJ/Jf1fOy8Xvf/2ftjsZjx8UXqwtbmC2xwSw+3EIqSmFOWAFKrNpeq9vpzG2Djo42fPzWAjq0uhwyEQe/+n9i4bkXYvT918XW//ZlLXwHFB33x/LBfyiLcEtLqTJ8SRMG71qWD+QRFcpQhY3+KYB7LGaMpSEZekQ3+/iTjjZ2LAUV208la8XXv/o1Lb7Fo9MemyeQkQl0qQJZ5E/gv6K5pfPI3bv3xCGtEpo64dEYWEXUaGO0QBACq+zMk61dUdbqPUPbb+UW9+51lzB9sYd0S92bbHtyOhZf3Bc9OrZqHT7i7kgEey1GRJmxGQu/ejpaLFXYhVBGlS6GlYxVMpLoKtldniYSD4BwyOh4Mo4u0YGColTvcMix//bXD5ZjAXDpOrn/6B7UMdkn//j2aOu0Z/PmzTkLG8IukDLAEln5y2wxYbzNksW1DJXto8di8r4fxsxjj6cRsqdYQ3Usa+EL58yuJ7WG2y/Dm9HWxNM6NpsgSLYXt2AiXURg+9iMggoD3qBfEYNw6DKCyIpOUdCzcSz6N2/S/nnUYyHjnreaWoBj44oaMgQwwcL1tr9PlL5e6bv0indrWbXD+k/r+8BVzayJUd7b6hqtvfpkoqmowStCAgP1RxL/aPKVA0f1d8TAeOunXuILQnBhxoZ+oC/6ztum88YtbgfLKYRLr2i7pu5XLxqjVwe6Q1deEsPvvVaL+Yuid7MOZ4dHNFFpUaQZn+UPi++FXb+K+aefiZWDsqHshDASPB2jshNdKC0Yu2HtkmrcaLao0KWHNqV7pG/mlOEKD9ZKEUF1te7ZzIJqVCZIVg4lRomn4uNQMYg2Mw12ZUY2BR0OEjSusDwZ++jNMbRjey6WLQlTxKuIPPA//5fWnHutkPO9wSt2aMF9a4zdpE9MLrzA68uOhooVveinl/Rs2hwDF16od8E3REuHr3OP/1Jv6e7XskevONXw2OneZH+sJstQqevN/E9A8UX+yy9cKyfSKiIHADx95ZhAi6DMdXpUOi8DXGFil5NN9uz0AJRBST6Z0zChWPSsHHg95p56WgeeOsLSqXHPFZd0pUDCaGiTtebjAryR970nNt35Oe+VV/Vif0rrxYWnn9V2Tp+aMMaKixmXSB6+eEeMCMANn/109G+/MA7/3V0x/YiO4TSbQudQkNPVrxP5jzPYBCY2X09t5daAQogd1rO2AKS0FBw8OooUj1EaC1JpRqNJCo2JlTaPHqkRGCSAS/0YUxjQl1/Swec3vq2zxcd0KME7W+oLi5IJn+i0oGa8G7zqktj8n+/Uq9AP6KuD38TkDx6KKZ1NruzXgYKWLZ6EESFHmjqFntk4HqO/fComPn1HjN1yU2zVTqWztBizP30iQt35tPy3B/QejNSfANAyhkTmE4SMHjtbyo0qrcRidmE5+vRCaWDbOTHNOVvKMchMOIANG0JRA8jIpdDiqFehGwi8dAi68IzWi/qDGMfZn/p0BQmEBEo0Vvafsznfk+gkekkHEwf/99di5lGdVk/NeNwz2KIlJNC2qlMdlkSTDzyiLxUYp3WAqz32Wf/1K9pjv6yPo15P42xYSaJfvLa+lJsR/yUVe3JIM0Ue6atU+tSt5Jzdx4FCDHMeOGr1oS0WC+HxW2+KkQ/eEHOKgLbe0TLrYXD+Kg2/+VRUQOUc0gZwT5LMsx5zETdV8FBktA8d1X5X37DgNRONDlVHb/ojvee4WZPJXBy+656YfvgxpfUyqbRQOoaT+pUc5DX1Fq9nqD/mtWc/+NW/C8bLUY2bE5+4LQ7/7T3aFnKOiN6T+2+Dscf6MPU0vw9saYkxt+sJdYUPeeY7R91h5Zi2WxjAhdVMs3piv8HANqty04iSgqwvdkDZveBLgP4xOrv3KWdJ0ZgY06HBR318f/iub+p7v595UYwug4UEzMBBNKJG4+WAzg5HrrtaXynoHc6Tz8WRe74d5/2Pv46td37eR/7tQ+x4KnNlx0rZS7nr9OBZnSo2UaAunBXU4WKOfaQwrLhegVlY0unIkx6Ix3VqMqhXj0MDl64XYGfSZQSjWJoJsXK5AZUtfnYNS/0iEv7to+p22nrxPamjU/qHLjxXS5ULNX4t6aswjXn6wIkIsOiuc2XKQb4OHwav3BGbv3JnjN5wvXrPtPbXGi+//5C78KBm++FLtsfMYY2F9vzk/nup9oZWTwBlgDFisSqL8owMj7GMPxzGKo272qMe+5426795PvrOPz96eFEjHncj9wJA50o+M9U0IiTHNUawksFBoyVXW+Ps8v6DylGQcgZ0UMDrz6UX9mlC0XimrkdVU2vHVXYuek/T7cJ68T9w5cX+EHTD7bdpdtZadZbm0JpUX6vO7XoqOAob1Bu92cf0ujQ7jWw7if8+FLFRXdO6pzGOjOJ61xN7RBQAajrIaUrn6IzexT4ZPU88q3lcEwlhIAH2VQB5d2EVFZICWhckys2SfMme/MgSXYfxTw1CywJhr7ZNjcEBvWR/USfavAOWPUODOmS9TO9PDmuy0IdJyy1H3vAVAu8rX4qJj+/0mH34b7+u3dIvNLbqaEf2Lzz3nE6S7tDpzQXSjyFpS3qYeSu1Kev9zwkqQ0TUsjVfrEsCBqkEi8FiHT+Z1FAnE6IIGn9GIZ6MWATCzk0RQcbpLIfGMyzybTUac+Am/6b6LUI18psjfr536egtXkcgcGA7uOOC2Prl/xDL2qUc+db3NKse1KfHF8RmvQKY2PnRWHplvyaKv4+p+x7S2zl9FoJ5qNShrhtZDUCjZ68gYYoT+o9LDpTig0+kXaCKk34fl/KFCw7oskKegAwEBRqVu8g3rFa9L7SbswBm67NaxW+ln3L2tix5evQagW9zGO2aOqHuP/dcffR+g3Idncj8MjbqdcDYxz8qUF+NQ3opP33fj/Q115z0yoDSqL3jE7ajM60JxJZgx1vrN7PszjPnpMUd/NWXCeZUjoqSplZXArIWTXVBjTH6hdPPot35LElZ4EdhyhHALq6cWq2t17k+LTaurn6NPexjAXHw4ouiV1/JLsvWpT0vxtHv3KsT6S/GBp1mj+rb7QG96lx+7TVNdN+ImfsFng4UrFHGWIU+Gxm6UhOfziYZDtJ/UZxIfwG++pM+yjWxMcqYlxfUHudUCDBodcdyRmkflnZZk6gQEiHQY0NeiJXBaHBZdnPIAcVFa8Qn1c9bu+WXtfDVCXW/xq3BSy72cf6KPvc49v0fxpGv363T6RnNuldqwnjd4E3rULalBTam2RMPIQ138cH3XO13zgu/3m2jMeXU/E8/ai8CqO5hQrpVnFMNqRzHrD+dxhZddJc1IZUz6xINpd1qhYzFMhKl0K2IbOX5NZiQO5V3cqTW6+c0Zv7ZZ2NQ/2RhfOeH/e5j6bcv+Xhs8gcPalJY0avOS3Sm+GxMPaSP36f1RQLdTjqYZhnwGzpB3/Cp26Nfb/tmtXdeevGVU9afdtpqO0EeX3SgmsbiuA12RU2LwUCU6T19FkUBxolyE52DCkOp119OGspTB5muLAc5Q+Sna0+iv62jrGl90DR63bUxpl3Q/DO7Y2ruB+qu+thSS6spgehtnb7aYk/s3iQPcZmjr8boYIzf+D519U/oNHwujnzjW95ZEQvYe7r+m0c39Q6U4AfTUxFmgSm0CjY4pbwCTRn4wpWzrIxVmduJp6c85IiiNFTSq4BCyk9RP3Lndz2twwN9C6jF9KbPfSrG//i26L9QX/jzPmVmUd1cX2hxZN8Vr5lb38/0bB6PcX3lsEWHEH1bt8TUAw+pMR7xlvFU9Vf/vTHA5XLlMgYQFObruwz1nt5V5+rCkA+VSKKjM9Fxsdu7EFegrNjkoifqlM4YLeABrHlOrp9PPCbvfSAamzbGxjt2xpYvfUHvZTbq28FfaELQabbGQU6eWQ/zvqIxoq9U9WnwiD6VG7/jYzGksXPm3x6NI1+7x12fD86z4WX+KfpfA6bCcZrfBzpoBIAs1Pzjj4UkEWDyUpl+jAdRUItLGjBd5Dw3zk1wAtokzkYshIW/8kG2+MKrMXn3d3S+tRwTt35YY9rHY+Tqd8ec3gev7Hs5VgQy3+A0dH7Ii/rBKy7TpLNdp90DMf3Qw3HkH77p0x+9KHlb+m0rQePLhwnpcFnkKEJKHgJbLifpP/jEQ05BQVkFzhyuzMG6ijcP9BToBkZucfgtyxUF1LWZu+CWjBpajtevncTuF2L17m/Hyss6Gfrwh6Jfe+Sxj52t7quJQ92bfyfCd9fN0TF/ycXHltOKvFmdOS7oFWhoRyIL7KuUnJb+XLcYPbFymCCvcCo9wlH9VadLwqBCB59v5jUdReblUaIIcLhyrFTG4hFKQl1MdUoVEN+GfjUGkbhy9If6RuZ5L004aBjUiXNTHxwhvaV/XLP0q1/n3nnfK5p0dPR2ZFo9VZEnO9+Wfpg4lzN3PrILE03KV8dyBlsDrEZabTXTOjqJJOUAxU/JKOA5aorMKtgDsOjMD1sxpUb9aenX0XN7ckYTy6/1Mn2P/wlEv76LZr/M0BArSzpqm9SpjT4NJjIZG23b76Yfo7G7XppEitmllKhx91JxFiWQAMIPV7IUQ1wmgwuIBCFUtauykkWmtSCjAM0uxM32u+oHyFn9a6TZA5qFdcLMSIA+AcY/HWPN2u0Zv6t+gME3/yQ+p/d9oCC1QbUNJC9BLsBYPMBW0ARRiTh3X9fbAskpzQPiLjLEpXUyDda5lVDCuk6sH1FuVmZUv1vWfjmFiD/1IBFZb1d/cmbwIEr/6YSMwt5UTeMpSTPqQfk6xU5Wh+Er1fDXLosCRxkAWS7thRg9LTvTqUdp5JgujToT9ONR2ux1RGkLldhROZue26sElKScp9sBqoFw13CxOWoquZLOcgrg8LlBLD7BdROoEFyxCN7KX1Nmp/Adoj+RszFYrRGjGqdk1xGXQYRf6SBFpAAvgTC15ZGqLOsT3S0cUYY2S9ADuTVnRorODP14gb+1E//h/w+sjamoyNUA0OhHDZt9IoMmI48QAr5yieb0vg9EmSJyvQzHFhFmuXnqgngCKwtV5yhOc+DNZZGFJYnrkeTKruEeYSwJaanj961f05OBru6x/rBxdYDKY/ZsAVzC9OzEWQZjjoXw6eLAoIxz7uIUJZpFUQLuRXViZtD+8P8HAquwAWLviQUcecOqRMKbAU/5WjNAAyEUCKi0OQayBMoa5MK4Tg9izJdN+/vQn7srDMkr34lgcteR7Co5QcsJGQxIdpq76BxgBZTqUAJmSDKYVdAtc7rmUMUyaQ1EQ3gm6BcW3Q1ABTC3Yul4wdFV3nnY8YyEGieFT6QJtKNAdO62GWoJcJeQKMsdQe3qJXRpM8uxXugtJxnfqfodNzR+ubpH+tWJGifZfQBWULnbFJDttNICq9KmLOVVh+i1cqX0S8QacHhdmZF9XGtCt473Ham/+GFfiq2n9X0gCP3h/w9kGCtBomdvzxZ9TltDh6GJs1JHST4cgSpiHKxXRgpS1BYKr/V10Li+yEi25Kj862ONrn/G6JdPTf27vOjXd3k4Jv97N/7Jx5wwrEauOsuTCySU7hYjhe7qIwN3zdp3E+w38NXWsCzEaKEkxfxLom4V/Zpmrbq6T5jeQfp1QMF/UdAzOmq7bPH87j35PomBisvRWNJZ4nu6x71exbHqIM/8TbyV9j+3IkoFmr8PrDokhiS48a2K32fVune0fgGof2vSq/csPXpZhaP6IIl/e5TtbGi6mW7Cxb51I2WtCE5PKIAiEDx7Km1wQFRKEi3kvflFDZS+upluotakUFu7VvR70Z/O2QhNhMdblGYfb/xxZZCvE7DelTdPr8lySjdH35sTA7cjlnu9jit7h+l/A4Bpqg3vJruJ44uVq76Y4niy6nt5nrByHe06um6ymzDd+tw7Qf+/A7Npt09bWjT/AAAAAElFTkSuQmCC;" vertex="1" parent="1">
          <mxGeometry x="670" y="149.5" width="80" height="81" as="geometry" />
        </mxCell>
        <mxCell id="0eFBLOgmWxSDUSr-63NG-12" value="AWS Gateway" style="text;html=1;strokeColor=none;fillColor=none;align=center;verticalAlign=middle;whiteSpace=wrap;rounded=0;dashed=1;fontSize=16;" vertex="1" parent="1">
          <mxGeometry x="490.5" y="240" width="60" height="30" as="geometry" />
        </mxCell>
        <mxCell id="0eFBLOgmWxSDUSr-63NG-13" value="Centrify" style="text;html=1;strokeColor=none;fillColor=none;align=center;verticalAlign=middle;whiteSpace=wrap;rounded=0;dashed=1;fontSize=16;" vertex="1" parent="1">
          <mxGeometry x="680" y="240" width="60" height="30" as="geometry" />
        </mxCell>
        <mxCell id="0eFBLOgmWxSDUSr-63NG-14" value="" style="endArrow=classic;html=1;rounded=0;fontSize=16;entryX=0;entryY=0.75;entryDx=0;entryDy=0;" edge="1" parent="1" target="0eFBLOgmWxSDUSr-63NG-11">
          <mxGeometry relative="1" as="geometry">
            <mxPoint x="560" y="209.5" as="sourcePoint" />
            <mxPoint x="660" y="209.5" as="targetPoint" />
            <Array as="points">
              <mxPoint x="640" y="209.5" />
            </Array>
          </mxGeometry>
        </mxCell>
        <mxCell id="0eFBLOgmWxSDUSr-63NG-15" value="Authorize" style="edgeLabel;resizable=0;html=1;align=center;verticalAlign=middle;dashed=1;fontSize=16;" connectable="0" vertex="1" parent="0eFBLOgmWxSDUSr-63NG-14">
          <mxGeometry relative="1" as="geometry" />
        </mxCell>
      </root>
    </mxGraphModel>
  </diagram>
</mxfile>
